<?xml version="1.0" standalone="no"?>
<!DOCTYPE svg PUBLIC "-//W3C//DTD SVG 1.1//EN" "http://www.w3.org/Graphics/SVG/1.1/DTD/svg11.dtd" >
<svg xmlns="http://www.w3.org/2000/svg">
<metadata></metadata>
<defs>
<font id="edmundsbury_serifregular" horiz-adv-x="946" >
<font-face units-per-em="2048" ascent="1638" descent="-410" />
<missing-glyph horiz-adv-x="500" />
<glyph horiz-adv-x="0" />
<glyph unicode="&#xd;" horiz-adv-x="2048" />
<glyph unicode=" "  horiz-adv-x="500" />
<glyph unicode="&#x09;" horiz-adv-x="500" />
<glyph unicode="&#xa0;" horiz-adv-x="500" />
<glyph unicode="!" horiz-adv-x="260" d="M30 69q0 -40 29 -70q31 -30 71 -30q41 -1 70 29q30 30 30 71q0 42 -29 70q-29 30 -71 30q-40 1 -70 -29t-30 -71zM34 1019q0 -26 7 -74q7 -47 23 -221q18 -174 34 -461h64q15 224 27 382q13 159 20 216q9 58 12 96q5 39 5 62q0 43 -27 71q-27 30 -69 29q-40 1 -68 -29 q-28 -28 -28 -71z" />
<glyph unicode="&#x22;" horiz-adv-x="516" d="M30 1071q0 -13 11 -52q12 -39 27 -99q16 -60 24 -111h59q9 51 24 111q17 60 27 99q12 39 11 52q1 43 -25 71q-26 30 -66 29q-39 1 -66 -29q-26 -28 -26 -71zM303 1071q1 -13 11 -52q12 -39 27 -99q16 -60 24 -111h59q9 51 24 111q16 60 27 99t11 52q0 43 -26 71 q-26 30 -66 29q-38 1 -65 -29q-26 -28 -26 -71z" />
<glyph unicode="#" horiz-adv-x="788" d="M40 321h137l-56 -321h84l57 321h199l-56 -321h84l57 321h202v84h-188l36 200h152v84h-137l56 321h-84l-57 -321h-199l56 321h-84l-57 -321h-202v-84h188l-36 -200h-152v-84zM276 405l36 200h200l-36 -200h-200z" />
<glyph unicode="$" horiz-adv-x="841" d="M32 235q2 -58 35 -109q35 -49 87 -81q54 -31 110 -51q58 -18 110 -23v-210h54v208q294 3 360 221q24 82 9 150q-15 69 -60 111q-37 35 -83 56q-45 21 -129 47q-19 8 -57 18q-38 12 -40 11v362q48 -2 96 -18q50 -15 84 -42q35 -27 42 -61q9 -34 -27 -73q-27 -33 -6 -68 q23 -35 62 -38q38 -3 62 23q26 27 24 71q-1 57 -33 107q-31 50 -80 82q-48 33 -107 51q-57 19 -115 21h-2v207h-54v-208q-172 -9 -262 -107q-34 -38 -53 -94q-18 -55 -6 -123q14 -67 68 -117q45 -38 104 -64q61 -24 149 -49v-412q-70 6 -133 36q-61 31 -85 74q-24 45 15 94 q29 35 11 71q-18 38 -66 38q-45 2 -66 -30q-20 -30 -18 -81zM160 759q-4 51 26 94q58 81 188 91v-344q-124 38 -171 77q-37 32 -43 82zM428 31v400l15 -5q11 -2 17 -4q138 -39 178 -93q36 -48 31 -108q-3 -60 -40 -108q-33 -43 -82 -62q-47 -18 -119 -20z" />
<glyph unicode="%" horiz-adv-x="1174" d="M30 839q0 -116 75 -198q75 -81 182 -82q107 1 182 82q75 82 75 198q0 117 -75 198q-75 82 -182 82t-182 -82q-75 -81 -75 -198zM84 0h94l912 1088h-94zM130 817q-15 101 18 174q33 75 105 86q6 1 18 1q65 2 113 -61q48 -62 60 -156q14 -99 -20 -175t-103 -86t-122 53 q-54 65 -69 164zM630 249q0 -116 75 -198q75 -81 182 -82q107 1 182 82q75 82 75 198q0 117 -75 198q-75 82 -182 82t-182 -82q-75 -81 -75 -198zM730 227q-15 101 18 174q33 75 105 86q12 3 18 2q65 2 113 -61t60 -157q14 -99 -20 -175q-34 -75 -103 -85q-69 -9 -122 53 q-54 64 -69 163z" />
<glyph unicode="&#x26;" horiz-adv-x="1387" d="M56 429q-26 -163 94 -295t346 -159q178 -21 324 25t226 140t77 213q-3 147 -174 257q54 12 104 24q84 21 154 57q71 38 107 86q42 57 42 124q2 67 -39 117q-58 75 -184 78q-33 0 -59 -4q-78 -11 -122 -48q-44 -36 -45 -92q1 -68 79 -78q36 -4 59 16q25 20 31 58 q2 12 -2 43t3 47q9 18 36 23q37 9 69 -1q33 -8 53 -28q43 -36 40 -99q-2 -63 -53 -115q-46 -48 -134 -73q-69 -20 -189 -46q-118 -26 -157 -36q-170 -44 -239 -140q-40 -57 -42 -124q0 -66 39 -117q38 -47 105 -66q69 -18 138 -8q79 12 122 48q45 36 45 91q0 33 -21 53 q-21 22 -58 26q-34 6 -60 -15q-25 -21 -31 -59q-2 -11 2 -42q6 -30 -2 -48q-8 -16 -36 -23q-36 -8 -70 1q-32 10 -53 28q-41 38 -39 99q2 63 53 114q45 47 163 83q90 28 127 36q39 -19 74 -48q35 -28 68 -80q33 -50 33 -104q0 -94 -73 -163q-72 -69 -192 -97t-258 -10 q-104 14 -184 53q-79 39 -122 92q-41 54 -59 111q-16 58 -5 115q12 57 45 100q32 45 76 68q44 25 80 37q38 14 71 18q17 2 20 1q4 0 16 -3q13 -2 25 -4q17 -2 28 4q12 8 13 18q3 10 -9 17q-10 9 -28 8q-12 1 -26 0t-19 -1t-14 3t-19 11q-44 36 -61 85q-16 51 -13 84 q4 35 16 61q26 56 80 85q34 19 69 22q36 3 60 -12q9 -5 15 -13t8 -18q3 -9 3 -17q1 -5 -2 -19q-3 -12 -5 -19q-2 -5 -7 -20q-4 -15 -6 -19q-12 -36 6 -63t54 -33q80 -12 102 52q21 52 -9 99q-28 49 -100 82q-87 41 -179 35q-69 -4 -128 -38q-57 -32 -80 -95q-31 -83 9 -155 q42 -70 127 -115q-34 -5 -68 -17q-33 -10 -79 -33q-44 -22 -80 -52q-34 -30 -64 -78q-28 -48 -38 -106z" />
<glyph unicode="'" horiz-adv-x="272" d="M39 1088q-9 -44 17 -75t71 -34q-13 -51 -67 -163h72q27 44 71 142q23 52 32 87q9 41 -11 74q-18 35 -56 45q-18 6 -32 5q-34 0 -62 -22q-27 -21 -35 -59z" />
<glyph unicode="(" horiz-adv-x="612" d="M30 434q0 139 34 258q35 120 91 203q57 83 129 142q72 61 148 88q76 28 150 28v-50q-76 -15 -145 -66q-67 -51 -122 -132q-54 -81 -87 -204q-32 -121 -32 -267q0 -144 32 -267q32 -121 86 -203q56 -82 123 -133q69 -51 145 -66v-50q-74 1 -150 28t-148 87t-128 143 t-91 202q-35 121 -35 259z" />
<glyph unicode=")" horiz-adv-x="592" d="M10 -235v-50q75 1 150 28q76 27 148 87t128 143q57 83 91 202q35 121 35 259q1 139 -34 258q-34 120 -91 203t-129 142q-72 61 -148 88q-75 28 -150 28v-50q78 -15 145 -66q69 -51 122 -132q55 -81 87 -204q32 -121 32 -267q0 -144 -32 -267q-31 -121 -86 -203 q-54 -82 -123 -133q-67 -51 -145 -66z" />
<glyph unicode="*" horiz-adv-x="644" d="M35 662q-5 -16 4 -34q9 -16 27 -20t31 4q8 4 24 20q17 16 55 44q38 30 95 64q10 6 19 11q10 6 13 8v-38q-1 -65 -7 -113q-6 -47 -11 -70q-5 -22 -5 -31q0 -16 11 -30q13 -13 31 -13q19 0 30 13q12 14 12 30q0 9 -5 30q-5 23 -11 70q-6 48 -7 114v38q4 -1 13 -7 q10 -6 19 -12q57 -34 95 -63q39 -29 55 -45q18 -16 24 -20q13 -8 31 -4t27 20q9 18 4 34q-4 16 -19 24q-6 4 -29 11q-21 7 -66 25q-45 20 -103 51l-33 18q6 3 33 19q58 32 102 50q46 20 67 26q23 8 29 11q15 9 19 24q5 16 -4 34q-9 17 -27 20q-18 5 -31 -4q-6 -3 -24 -20 q-16 -15 -55 -44q-38 -28 -95 -64l-32 -19v38q1 66 7 113q6 48 11 70q5 23 5 31q0 18 -11 30q-11 14 -31 13q-18 1 -30 -13q-12 -12 -12 -30q0 -8 5 -31q5 -22 11 -70t7 -114v-37l-32 19q-57 35 -95 63q-38 30 -55 45q-16 17 -24 20q-13 9 -31 4q-18 -3 -27 -20 q-9 -18 -4 -34q5 -15 19 -24q8 -3 29 -11q21 -6 66 -25q45 -18 103 -51q28 -16 33 -19l-33 -18q-57 -31 -102 -50q-45 -18 -67 -26q-21 -7 -29 -11q-14 -8 -19 -24z" />
<glyph unicode="+" horiz-adv-x="668" d="M40 323h252v-252h84v252h252v84h-252v252h-84v-252h-252v-84z" />
<glyph unicode="," horiz-adv-x="272" d="M39 98q-9 -44 17 -75t71 -34q-13 -51 -67 -163h72q27 44 71 142q23 52 32 87q9 41 -11 74q-18 35 -56 45q-18 6 -32 5q-34 0 -62 -22q-27 -21 -35 -59z" />
<glyph unicode="-" horiz-adv-x="668" d="M40 323v84h588v-84h-588z" />
<glyph unicode="." horiz-adv-x="260" d="M30 79q0 -41 29 -70t71 -30q40 1 70 29q29 29 30 71q0 41 -29 70q-30 29 -71 30q-40 -1 -70 -29q-29 -30 -30 -71z" />
<glyph unicode="/" horiz-adv-x="582" d="M10 -176l486 1335h76l-486 -1335h-76z" />
<glyph unicode="0" horiz-adv-x="850" d="M30 410q0 -176 115 -304q117 -126 280 -127q164 0 279 126q116 128 116 305q0 178 -115 304q-115 128 -280 127q-163 1 -279 -126t-116 -305zM184 376q-23 156 27 269q51 115 162 131q111 18 192 -80q83 -96 101 -252q20 -153 -32 -270q-52 -116 -157 -131t-188 82 q-83 98 -105 251z" />
<glyph unicode="1" horiz-adv-x="444" d="M20 0h404v41q-30 1 -36 1q-50 6 -71 22t-21 57v720h-108q3 -43 -48 -72t-120 -33v-41h128v-574q0 -41 -21 -57t-71 -22q-4 0 -36 -1v-41z" />
<glyph unicode="2" horiz-adv-x="809" d="M40 0h714l20 232h-41q-6 -52 -33 -80q-26 -28 -60 -28h-494q3 14 24 32q22 18 65 38t78 35q36 15 94 37q60 24 82 33q129 54 193 118q42 41 56 104q16 65 -5 135q-21 72 -88 116q-66 45 -150 60q-45 9 -108 9t-139 -22q-62 -17 -115 -62t-68 -96q-11 -42 3 -72t50 -39 q44 -10 73 18q30 30 14 66q-12 28 -9 50q4 22 14 37t30 27q21 12 41 18q21 6 43 10q116 18 181 -29q68 -48 80 -120q18 -90 -34 -152q-51 -60 -189 -129q-18 -8 -55 -26q-36 -16 -57 -27q-20 -9 -53 -27q-31 -18 -51 -31q-18 -12 -41 -32q-21 -18 -35 -36q-12 -17 -21 -40 t-9 -47v-80z" />
<glyph unicode="3" horiz-adv-x="892" d="M55 -113q11 -55 65 -103q54 -46 142 -73q152 -45 302 -12q120 26 203 103q85 78 91 199q4 71 -25 130q-29 61 -80 97q-49 38 -100 59q-51 23 -102 32q49 13 95 39q48 26 85 64q39 38 56 91q19 55 9 113q-12 79 -81 132q-68 54 -156 72q-57 12 -107 11q-76 1 -145 -20 q-63 -17 -115 -59q-52 -40 -67 -92q-12 -42 4 -74q18 -32 54 -39q39 -7 68 20q31 27 13 66q-21 45 -1 75q21 30 52 44q33 16 72 20q114 14 180 -40q68 -52 77 -126q2 -17 2 -34q2 -16 -3 -41q-4 -25 -14 -46q-9 -20 -30 -45q-19 -24 -48 -45q-29 -20 -74 -38t-102 -30 q-3 0 -11 -2q-7 0 -12 -2q-4 0 -10 -3q-6 -2 -8 -5t-2 -9q0 -4 1 -8q3 -2 6 -5q4 -1 7 -3q4 0 13 -2q9 0 15 -2q78 -12 137 -38t92 -58t54 -65t26 -69q6 -36 6 -61t-4 -49q-5 -32 -20 -64q-13 -30 -39 -61q-26 -29 -63 -49q-36 -18 -88 -28q-51 -9 -118 1q-31 4 -61 16 q-29 14 -55 32q-25 19 -37 48q-12 30 -3 63q13 48 -17 75q-30 28 -68 22q-86 -13 -61 -124z" />
<glyph unicode="4" horiz-adv-x="912" d="M30 20h506v-213q0 -39 -21 -57q-21 -16 -71 -23q-4 -1 -37 -1v-41h405v41q-30 0 -36 1q-50 6 -71 22q-21 18 -21 58v213h47q87 0 98 -92q3 -10 2 -37h41v350h-41q1 -26 -2 -36q-11 -93 -98 -93h-47v729h-116l-538 -729v-92zM121 112l415 561v-561h-415z" />
<glyph unicode="5" horiz-adv-x="880" d="M57 -108q15 -57 66 -107q52 -48 139 -75q156 -46 304 -7q120 33 196 133q76 102 83 227q6 86 -18 153q-21 68 -60 107q-38 39 -90 64q-51 27 -98 35q-45 10 -92 10q-84 2 -162 -25q-76 -27 -130 -65l43 362h523v137h-587l-65 -560l75 -33q77 72 157 95q81 25 151 11 q56 -9 98 -35q43 -24 66 -58q24 -33 38 -75q16 -40 15 -84q0 -42 -6 -87q-17 -107 -98 -188t-220 -76q-37 3 -75 13q-38 12 -70 32q-31 22 -42 52q-10 32 5 72q21 46 -14 78q-33 32 -78 22q-81 -18 -54 -128z" />
<glyph unicode="6" horiz-adv-x="1012" d="M76 372q38 -196 161 -295q124 -98 307 -98q112 -1 210 49t158 136q60 87 65 187q5 103 -46 193q-51 92 -144 145q-93 54 -205 50q-75 -2 -141 -25q-65 -22 -110 -55q-43 -33 -70 -60q-26 -27 -41 -51q-2 186 73 311q76 126 186 174q35 15 74 21q40 8 76 3q38 -3 62 -27 q25 -22 28 -63q3 -27 18 -42q17 -15 41 -19q40 -6 71 23q61 58 -20 138q-59 45 -143 60q-84 16 -159 3q-75 -12 -139 -42q-182 -84 -270 -278q-87 -192 -42 -438zM231 428q19 87 100 159q82 74 193 77h4q4 2 4 1q116 1 195 -87q81 -87 90 -198q7 -72 -16 -143 q-22 -70 -80 -127q-57 -56 -141 -69q-27 -3 -42 -4q-72 2 -135 39q-61 38 -100 95q-37 57 -57 124q-18 69 -15 133z" />
<glyph unicode="7" horiz-adv-x="870" d="M35 597h41q7 53 32 80q27 28 60 28h563l-525 -1020h90l539 1059v97h-784z" />
<glyph unicode="8" horiz-adv-x="950" d="M31 309q-1 -82 38 -148q40 -64 106 -103q66 -38 140 -58q75 -20 150 -21q103 -3 187 21t156 86q58 49 85 117q28 69 11 147q-16 80 -81 143q-33 33 -72 56q-39 24 -114 57q17 8 32 16q16 8 50 30q36 24 60 47q25 23 48 61q24 39 30 79q9 61 -11 112q-21 51 -61 84 q-39 33 -93 56q-54 25 -109 34q-55 10 -107 10q-194 1 -310 -98q-50 -42 -75 -106q-25 -63 -13 -134q14 -69 68 -123q54 -52 147 -95q-27 -9 -52 -20q-24 -11 -66 -35q-39 -24 -69 -52q-28 -27 -51 -71q-22 -42 -24 -92zM183 334q10 56 61 115q52 60 132 102 q104 -33 148 -51q45 -16 103 -48q60 -30 90 -65q46 -49 48 -110q3 -60 -32 -111q-34 -50 -104 -83q-69 -33 -156 -31q-157 4 -233 87q-75 84 -57 195zM218 931q30 81 125 115q63 24 125 21q137 -3 202 -75q66 -70 44 -177q-9 -47 -54 -101q-44 -54 -95 -81q-249 79 -314 149 q-63 70 -33 149z" />
<glyph unicode="9" horiz-adv-x="1012" d="M35 469q-5 -101 46 -193q51 -90 144 -145q94 -53 205 -50q75 3 141 25q66 23 110 55q45 33 70 60q27 27 41 51q13 -176 -67 -306q-80 -129 -192 -179q-34 -14 -74 -21q-39 -6 -76 -3q-36 5 -62 27q-25 24 -28 63q-1 27 -18 42q-17 16 -41 19q-39 6 -71 -23 q-61 -57 20 -138q59 -45 143 -60t159 -3q76 14 139 42q183 86 270 278q88 194 42 438q-36 198 -161 295q-123 99 -307 98q-111 1 -210 -49q-98 -50 -158 -136t-65 -187zM195 439q-6 73 16 143q24 71 81 127q58 57 140 70q28 4 42 4q72 1 132 -33t97 -91q39 -57 58 -126 q21 -69 20 -141q-18 -86 -100 -160q-81 -72 -193 -77h-8q-115 -1 -195 86q-80 88 -90 198z" />
<glyph unicode=":" horiz-adv-x="260" d="M30 79q0 -40 29 -70q31 -30 71 -30q41 -1 70 29q30 30 30 71q0 42 -29 70q-29 30 -71 30q-40 1 -70 -29t-30 -71zM30 651q0 -40 29 -70q31 -30 71 -30q41 -1 70 29q30 30 30 71q0 42 -29 70q-29 30 -71 30q-40 1 -70 -29t-30 -71z" />
<glyph unicode=";" horiz-adv-x="272" d="M37 651q-1 -40 29 -70t71 -30q41 -1 70 29q30 30 30 71q1 42 -29 70q-30 30 -71 30q-40 1 -70 -29t-30 -71zM39 98q-9 -44 17 -75t71 -34q-13 -51 -67 -163h72q27 44 71 142q23 52 32 87q9 41 -11 74q-18 35 -56 45q-18 6 -32 5q-34 0 -62 -22q-27 -21 -35 -59z" />
<glyph unicode="=" horiz-adv-x="788" d="M40 181h708v84h-708v-84zM40 465h708v84h-708v-84z" />
<glyph unicode="?" horiz-adv-x="720" d="M35 926q-4 -60 44 -96q15 -10 34 -13q10 -2 16 -2q21 0 37 9q2 2 10 6q36 27 35 67q1 21 -13 39q-12 18 -25 26q-11 8 -17 20t6 22q58 62 157 54q63 -2 106 -32q45 -28 65 -72q21 -43 29 -84q9 -40 8 -85q1 -55 -16 -108q-15 -52 -65 -102q-48 -48 -124 -66 q-30 -6 -98 -9v-33v-84v-120h73v175q84 2 153 25q70 25 113 61q43 38 72 84q30 48 42 89q13 43 13 81q0 61 -23 120q-22 60 -67 110q-44 50 -118 80q-74 32 -166 31q-138 0 -223 -82q-52 -50 -58 -111zM161 69q1 -40 29 -70q30 -30 70 -30q41 -1 70 29q30 30 30 71 q0 42 -29 70q-29 30 -71 30q-40 1 -70 -29q-28 -30 -29 -71z" />
<glyph unicode="@" horiz-adv-x="1369" d="M78 369q-8 -178 68 -331q76 -152 220 -237q140 -85 314 -85q170 0 317 70q141 70 228 195l-58 44q-76 -111 -199 -169q-123 -56 -276 -58q-144 0 -259 72q-119 76 -179 206q-66 134 -60 293q10 163 86 293q78 132 198 205q129 75 273 74q133 1 244 -65q130 -70 184 -213 q47 -114 20 -258q-14 -87 -48 -151q-42 -84 -100 -131q-19 -15 -46 -17q-23 -4 -45 20q-27 34 -6 134l108 471h-118l-50 -98q-14 32 -56 62q-40 35 -93 38q-133 15 -247 -89q-120 -108 -157 -280q-32 -159 30 -270q31 -48 85 -79q60 -27 132 -21q96 12 189 82q29 -52 80 -73 q55 -19 106 -10q61 13 109 43q154 96 200 359q28 153 -23 291q-63 176 -234 266q-128 72 -275 71q-165 1 -321 -86q-141 -81 -242 -235q-87 -150 -99 -333zM499 367q30 144 96 220q69 78 142 74q41 -1 67 -29q30 -26 41 -62q15 -34 16 -72l-53 -263q-80 -153 -185 -164 q-75 -6 -113 75q-38 84 -11 221z" />
<glyph unicode="A" horiz-adv-x="1248" d="M20 0h283v41q-30 0 -51 12q-21 13 -21 33q-1 6 5 20l133 306h436q15 -33 110 -253q9 -18 23 -57q3 -6 3 -16q1 -19 -20 -32q-21 -12 -52 -13v-41h118h161h80v41q-22 3 -43 12q-21 10 -36 20q-14 11 -31 32q-16 23 -26 35q-8 14 -23 41q-13 29 -19 39q-4 12 -18 41 l-364 827h-79q-19 -58 -73 -180q-52 -120 -151 -336t-135 -297q-2 -5 -14 -31q-10 -25 -14 -32q-3 -6 -15 -29q-10 -21 -16 -29q-5 -8 -17 -26q-12 -17 -20 -25q-8 -7 -22 -20t-27 -19q-12 -5 -30 -12q-17 -6 -35 -11v-41zM401 484q138 312 186 421q93 -207 187 -421h-373z " />
<glyph unicode="B" horiz-adv-x="953" d="M20 0h497q70 0 112 6q83 12 143 43q61 32 92 75q32 44 45 89q11 34 11 68q0 11 -1 23q-6 96 -75 173q-68 78 -194 105q94 32 144 92q51 60 55 139q1 11 1 22q0 40 -14 76q-18 48 -59 88q-39 41 -119 65q-78 24 -187 24h-451v-41q33 1 37 -1q48 -5 68 -22q21 -16 24 -58 v-845q-3 -41 -23 -57t-69 -22q-4 0 -37 -1v-41zM297 72v101v69v296h215q106 0 175 -75q70 -75 70 -158q1 -65 -39 -129q-40 -63 -109 -89q-21 -7 -49 -11q-27 -2 -45 -4q-16 0 -54 -1q-36 1 -45 1h-119zM297 609v92v314h170q57 0 92 -12q64 -20 96 -73q32 -50 32 -114 q0 -62 -33 -113q-32 -51 -94 -76q-46 -18 -98 -18h-165z" />
<glyph unicode="C" horiz-adv-x="1126" d="M30 546q0 -124 50 -230q51 -106 135 -176q85 -69 187 -113q104 -42 214 -54q48 -5 93 -5q94 0 181 21q129 32 216 86l-42 55q-53 -39 -160 -66q-82 -21 -158 -21q-22 0 -44 2q-189 17 -319 134q-129 119 -165 321q-10 55 -10 108q0 75 20 146q34 120 114 197 q80 78 188 94q40 7 77 7q115 0 206 -63q51 -33 92 -94q41 -59 59 -115q6 -22 6 -26h43l-16 324h-42q1 -8 -2 -26q-1 -20 -8 -28q-5 -8 -20 -5q-13 5 -27 11q-12 8 -35 20q-23 14 -39 21q-104 48 -208 48q-162 0 -295 -70q-132 -69 -212 -202q-79 -131 -79 -301z" />
<glyph unicode="D" horiz-adv-x="1180" d="M20 0h490q166 10 219 26q207 66 314 251q72 127 72 262q0 66 -17 134q-36 145 -140 250q-104 107 -245 146q-63 18 -203 18q-134 1 -224 1q-53 2 -83 2q-20 0 -29 -1q-22 -1 -44 -1h-36h-74v-41q32 1 36 -1q48 -5 68 -22q21 -16 24 -58v-845q-2 -41 -23 -57 q-19 -16 -69 -22q-4 0 -36 -1v-41zM296 72v101v75v74v693h190h11q150 0 202 -26q98 -44 162 -153q66 -108 75 -247q2 -27 2 -54q0 -130 -56 -242q-68 -133 -185 -190q-63 -31 -211 -31h-190z" />
<glyph unicode="E" horiz-adv-x="982" d="M20 0h276h419h227v272h-41q1 -8 -2 -26q-21 -168 -148 -174h-36h-419v485h296q90 -7 100 -93q2 -4 1 -36h40v330h-40q1 -32 -1 -37q-10 -83 -100 -92h-296v386h357h36q68 -3 112 -50q45 -48 56 -134q3 -9 2 -15h41l-20 272h-207h-377h-276v-40q32 0 36 -1q48 -6 69 -24 t24 -58v-842q-3 -39 -24 -58q-21 -18 -69 -24q-4 -1 -36 -1v-40z" />
<glyph unicode="F" horiz-adv-x="940" d="M20 0h405v41q-31 1 -37 1q-48 6 -68 22t-24 57v436h296q90 -7 100 -93q2 -4 1 -36h40v330h-40q1 -32 -1 -37q-10 -83 -100 -92h-296v386h357h36q68 -3 112 -50q45 -48 56 -134q3 -9 2 -15h41l-20 272h-187h-397h-276v-40q32 0 36 -1q48 -5 68 -23q21 -18 24 -59v-844 q-2 -41 -23 -57q-19 -16 -69 -22q-4 0 -36 -1v-41z" />
<glyph unicode="G" horiz-adv-x="1214" d="M30 546q0 -124 50 -230q51 -106 135 -176q85 -69 187 -113q104 -42 214 -54q46 -4 90 -4q195 0 359 83v295q3 42 24 58q21 18 69 21q3 0 18 1q16 1 18 1v40h-405v-40q27 0 36 -2q49 -6 69 -22q21 -15 24 -57v-279q-95 -24 -178 -24q-19 0 -38 1q-189 17 -319 134 q-129 119 -165 321q-10 55 -10 108q0 76 20 146q34 120 114 197q80 78 188 94q40 7 77 7q115 0 206 -63q51 -33 92 -94q41 -59 59 -115q6 -22 6 -26h43l-16 324h-43q0 -8 -2 -26q-1 -20 -8 -28q-6 -8 -20 -5q-13 5 -26 11q-12 8 -35 20q-23 14 -39 21q-104 48 -208 48 q-162 0 -295 -70q-132 -69 -212 -202q-79 -131 -79 -301z" />
<glyph unicode="H" horiz-adv-x="1124" d="M20 0h404v41q-30 1 -36 1q-48 6 -68 22t-24 57v436h532v-436q-2 -41 -23 -57q-19 -16 -69 -22q-4 0 -36 -1v-41h404v41q-30 1 -36 1q-48 6 -68 22t-24 57v845q4 42 24 57q20 17 68 23q6 2 36 1v41h-404v-41q32 1 36 -1q48 -5 68 -22q21 -16 24 -58v-337h-532v337 q4 42 24 57q20 17 68 23q6 2 36 1v41h-404v-41q32 1 36 -1q48 -5 68 -22q21 -16 24 -58v-845q-2 -41 -23 -57q-19 -16 -69 -22q-4 0 -36 -1v-41z" />
<glyph unicode="I" horiz-adv-x="464" d="M30 0h404v41q-30 1 -36 1q-48 6 -68 22t-24 57v845q4 42 24 57q20 17 68 23q6 2 36 1v41h-404v-41q32 1 36 -1q48 -5 68 -22q21 -16 24 -58v-845q-2 -41 -23 -57q-19 -16 -69 -22q-4 0 -36 -1v-41z" />
<glyph unicode="J" horiz-adv-x="728" d="M33 143v-6q0 -55 50 -98q53 -43 125 -61q38 -9 76 -9q40 0 82 8q43 9 80 30q38 22 68 55q30 34 47 86q18 54 18 120v92v606q0 42 21 57q21 17 71 23q5 2 37 1v41h-405v-41q32 1 36 -1q51 -5 71 -22q21 -16 21 -58v-617v-44v-60v-51q-1 -51 -19 -90q-18 -38 -44 -57 q-26 -17 -54 -25q-27 -6 -51 -2q-63 12 -66 111q0 39 -24 61q-22 22 -58 21q-34 1 -58 -20q-22 -20 -24 -50z" />
<glyph unicode="K" horiz-adv-x="1054" d="M20 0h405v41q-30 1 -36 1q-48 6 -69 22q-20 16 -24 57v398q10 1 18 1q8 1 14 0q6 0 12 -4q8 -2 10 -4q3 -2 9 -9q7 -6 9 -9q2 -2 10 -12t11 -13q15 -15 18 -21l4 -4q18 -20 27 -32q10 -10 18 -20q8 -9 47 -57q41 -46 107 -127q16 -20 21 -25q6 -5 36 -43q33 -38 32 -56 q1 -20 -20 -31q-21 -12 -52 -12v-41h407v41q-34 4 -68 18q-32 15 -54 28q-20 15 -50 41l-39 39q-9 12 -35 42l-332 393q200 220 298 328t192 117v41h-311v-41q31 1 51 -12q22 -12 20 -33q0 -6 -2 -13q-2 -5 -7 -13q-5 -6 -8 -11q-2 -3 -10 -12l-10 -10q-35 -39 -77 -85 q-40 -45 -90 -99q-48 -54 -77 -84q-3 -3 -8 -9q-4 -6 -24 -27q-21 -24 -42 -36q-19 -11 -55 -11v374q4 42 24 57q21 17 69 23q6 2 36 1v41h-405v-41q32 1 36 -1q50 -5 69 -22q21 -16 24 -58v-845q-3 -41 -24 -57q-19 -16 -69 -22q-4 0 -36 -1v-41z" />
<glyph unicode="L" horiz-adv-x="972" d="M20 0h276h420h206l20 272h-40q0 -3 -2 -13q-2 -9 -2 -13q-9 -75 -54 -123q-44 -48 -112 -51h-36h-400v894q4 42 24 57q21 17 69 23q6 2 36 1v41h-405v-41q32 1 36 -1q50 -5 69 -22q21 -16 24 -58v-843q-3 -39 -24 -58q-21 -18 -69 -24q-4 -1 -36 -1v-40z" />
<glyph unicode="M" horiz-adv-x="1440" d="M20 0h405v41h-18q-15 1 -18 1q-58 6 -94 31q-34 27 -36 68l-1 53l1 737l402 -911h80q23 66 86 209q63 144 170 380q108 237 146 322v-810q-3 -41 -23 -57t-69 -22q-4 0 -36 -1v-41h405v41q-32 1 -37 1q-47 6 -68 22q-20 16 -24 57v845q4 42 24 57q21 17 68 23q5 2 37 1 v41h-111h-175l-392 -887l-391 887h-92h-157h-82v-41q3 1 18 0q16 -1 19 -1q130 -8 130 -80v-3v-3v-3v-3v-3v-3v-3v-3v-3v-3v-3v-4v-3v-3v-3v-3v-3v-4v-3v-3v-4v-3v-4v-3v-4v-8v-684v-53q1 -42 -34 -69q-34 -27 -96 -30q-3 1 -19 0q-15 0 -18 -1v-41z" />
<glyph unicode="N" horiz-adv-x="1144" d="M20 0h330v41q-30 1 -36 1q-84 12 -93 99v801v2q135 -183 371 -499q237 -315 331 -445h72v135v807q9 90 93 100q6 2 36 1v45h-330v-45q32 1 36 -1q86 -10 93 -100v-710l-633 856h-270v-45q32 1 36 -1q86 -10 93 -100v-801q-7 -87 -93 -99q-4 0 -36 -1v-41z" />
<glyph unicode="O" horiz-adv-x="1236" d="M30 544q0 -116 46 -223q48 -106 125 -184q80 -76 188 -122q109 -45 229 -46q120 0 229 45q109 46 187 123q80 77 125 183q47 108 47 229q0 114 -46 218q-46 108 -125 184q-78 77 -188 122q-109 46 -229 46h-5q-117 0 -224 -45t-187 -123q-78 -75 -125 -183 q-47 -106 -47 -224zM211 495q-10 58 -10 112q0 140 69 256q96 162 262 182q10 2 28 2h13q101 0 197 -60q96 -58 164 -163q70 -104 91 -232q10 -55 10 -109q0 -77 -21 -149q-35 -122 -118 -200q-82 -78 -192 -91q-21 -2 -41 -2q-87 0 -173 44q-105 57 -180 165 q-75 110 -99 245z" />
<glyph unicode="P" horiz-adv-x="868" d="M20 0h405v41q-31 1 -37 1q-50 6 -70 22t-22 57q-2 237 -2 358h145q106 0 187 30q82 29 126 77t65 98q21 51 21 99v6q0 36 -12 72q-12 41 -43 81q-30 42 -75 73q-44 32 -115 52q-70 21 -157 21h-416v-41q32 1 36 -1q48 -5 68 -22q21 -16 24 -58v-845q-2 -41 -23 -57 q-19 -16 -69 -22q-4 0 -36 -1v-41zM296 550v465h172q54 0 95 -22q41 -21 65 -57t36 -75t12 -79t-11 -79t-35 -74q-22 -35 -64 -57q-40 -22 -95 -22h-175z" />
<glyph unicode="Q" horiz-adv-x="1242" d="M30 544q0 -111 42 -213t114 -178q74 -75 172 -124q100 -49 212 -58q-90 -17 -187 -62l17 -40q62 22 119 30q47 7 82 7h15q42 -2 88 -15q48 -12 74 -24q27 -11 73 -33q48 -22 70 -32q98 -40 182 -40q140 0 239 112l-20 28q-48 -26 -102 -29q-10 -1 -19 -1q-45 0 -90 12 q-55 16 -109 34q-54 20 -126 38q-72 20 -138 24q204 42 336 199q134 159 133 365q1 156 -79 288q-78 134 -214 210q-134 77 -292 77h-4h-5q-117 0 -224 -45t-187 -123q-78 -75 -125 -183q-47 -106 -47 -224zM219 497q-10 57 -10 112q0 75 19 146q34 122 114 199 q82 78 190 91q10 2 28 2h13q155 -1 283 -132q129 -130 162 -325q10 -56 10 -111q0 -75 -19 -146q-33 -121 -114 -199t-190 -91q-21 -2 -41 -2q-142 0 -267 115q-141 134 -178 341z" />
<glyph unicode="R" horiz-adv-x="1052" d="M20 0h243h162v41q-30 1 -36 1q-21 4 -40 8q-25 8 -38 23q-12 16 -15 48v377q11 1 21 1q47 0 72 -30q8 -7 11 -13q4 -4 5 -6q1 0 1 -2q2 0 4 -4q28 -32 76 -89q50 -57 79 -94q31 -36 43 -51q48 -58 57 -68q33 -38 32 -56q1 -20 -20 -31q-21 -12 -52 -12v-41h407v41 q-68 5 -126 49q-57 45 -120 119q-48 59 -141 167q-91 110 -118 140q148 20 226 91q80 74 86 174q1 9 1 19q0 42 -18 84q-21 52 -67 98q-45 46 -129 75q-82 29 -190 29h-416v-41q32 1 36 -1q50 -5 69 -22q21 -16 24 -58v-845q-3 -41 -24 -57q-19 -16 -69 -22q-4 0 -36 -1v-41 zM296 570v445h172q54 0 95 -22q41 -21 65 -57t36 -75t12 -79q0 -80 -69 -146t-176 -66h-135z" />
<glyph unicode="S" d="M44 842q-1 -8 -1 -16q0 -43 18 -89q23 -55 71 -97q51 -42 120 -75q68 -31 134 -51q66 -18 129 -37q63 -18 120 -48q57 -29 92 -68q42 -48 42 -114v-9q-1 -70 -45 -117q-66 -71 -172 -85q-25 -3 -49 -3q-80 0 -158 30q-101 41 -169 116q-63 71 -83 152h-42l1 -331h42 q0 10 2 25q2 23 8 32q8 11 21 10q14 1 33 -8q21 -7 49 -21q5 -2 8 -4q109 -48 223 -61q41 -4 79 -4q70 0 130 14q95 23 163 80q69 59 87 141q10 43 10 83q0 43 -11 83q-20 80 -71 127q-53 51 -142 90q-87 39 -168 59q-79 21 -165 53q-84 33 -131 69q-41 36 -49 92 q-1 9 -1 18q0 47 26 86q39 58 124 80q55 15 109 15q32 0 64 -5q88 -12 147 -52q65 -42 96 -94q33 -52 48 -130h42l-15 322h-43q1 -10 -2 -27q-2 -21 -8 -30t-18 -9q-11 2 -22 6q-10 6 -31 15q-20 12 -34 16q-96 39 -191 45q-31 2 -59 2q-194 0 -291 -106q-27 -30 -45 -74 q-18 -45 -22 -96z" />
<glyph unicode="T" horiz-adv-x="1034" d="M30 816h41v8q2 4 2 9q1 6 1 9q22 168 147 173h35h187v-894q-3 -41 -23 -57t-69 -22q-4 0 -36 -1v-41h405v41q-32 1 -37 1q-47 6 -68 22q-20 16 -24 57v894h167h35q68 -3 112 -50q45 -48 56 -134q3 -9 2 -15h41l-20 272h-934z" />
<glyph unicode="U" horiz-adv-x="1168" d="M20 1047q33 1 37 -1q51 -5 71 -22q21 -16 21 -58v-563q0 -205 123 -322q117 -111 312 -112q194 1 311 112q124 117 124 319v546q9 90 92 100q5 2 37 1v41h-330v-41q32 1 36 -1q86 -10 93 -100v-107v-443q1 -170 -92 -256q-89 -82 -233 -83q-147 1 -233 83q-91 90 -91 240 q0 52 0.5 128t-0.5 177q0 204 -1 285q0 38 21 53q22 17 71 23q6 2 36 1v41h-405v-41z" />
<glyph unicode="V" horiz-adv-x="1248" d="M20 1047q32 -3 58 -21q28 -16 45 -35q18 -17 39 -54q20 -35 28 -53q8 -16 26 -58l364 -826h79q20 59 73 180q54 122 151 334q97 214 135 298q4 8 14 31q12 25 14 32q4 9 14 29q11 22 16 30q6 8 17 25q12 18 21 26q8 9 22 20q15 13 27 19q14 6 30 12q17 8 35 11v41h-283 v-41q31 1 51 -12q21 -12 21 -33q1 -6 -5 -21q-6 -17 -11 -26q-7 -16 -10 -24q-51 -119 -330 -749q-193 434 -304 688q-3 8 -7 17q-2 9 -17 42q-11 27 -23 56q-3 7 -3 16q0 21 21 33q21 14 51 13v41h-118h-161h-80v-41z" />
<glyph unicode="W" horiz-adv-x="1858" d="M20 1047q25 -1 48 -13q24 -12 42 -27t36 -44q20 -28 31 -50q12 -21 27 -58q16 -35 22 -56q8 -19 20 -55l273 -744h79h1h1l331 898l331 -898h2h73l303 819q16 44 31 76q16 33 40 69t56 57q33 23 71 26v41h-285v-41q30 1 51 -13q21 -12 21 -33q1 -5 -2 -14q-4 -15 -10 -29 q-5 -14 -11 -30q-6 -15 -9 -24l-6 -16l-250 -683l-318 862h-102l-320 -872q0 3 -258 704q-2 6 -8 21q-18 48 -24 67q-2 9 -2 14q0 21 21 33q21 14 51 13v41h-357v-41z" />
<glyph unicode="X" horiz-adv-x="1278" d="M20 0h320v41q-32 -1 -56 11q-22 12 -23 32q1 15 13 29q25 27 46 53l299 332q39 -48 47 -60q10 -10 22 -27q14 -15 23 -29q12 -12 58 -73q48 -59 120 -151q41 -50 41 -74q0 -20 -20 -31q-21 -12 -55 -12v-41h403v41q-30 1 -62 15t-56 32t-53 48q-29 32 -44 48 q-13 18 -38 49q-25 33 -28 36l-264 333q2 0 306 336q91 100 184 109v41h-320v-41q33 1 56 -13q24 -14 22 -34q1 -18 -20 -40q-13 -15 -55 -61l-218 -240q-75 97 -126 160q-50 64 -71 90l-24 31q-36 45 -36 63q0 21 21 32q22 12 56 12v41h-404v-41q42 -5 78 -21t67 -44 q31 -27 47 -47q18 -19 43 -52l254 -328q-199 -219 -299 -330q-38 -43 -59 -64q-20 -21 -57 -53q-36 -32 -70 -48t-68 -19v-41z" />
<glyph unicode="Y" horiz-adv-x="1078" d="M20 1047q35 -3 61 -15q27 -12 51 -40q24 -27 35 -45q12 -18 36 -63q5 -8 8 -14l231 -419v-330q0 -39 -22 -56q-22 -15 -73 -23q-4 0 -37 -1v-41h405v41q-30 1 -36 1q-50 6 -72 22q-21 18 -23 57q0 33 -1 227q0 98 44 164l58 90q29 46 44 68q15 24 23 35q86 132 127 196 q87 132 179 146v41h-282v-41q32 0 50 -12q20 -12 18 -33q0 -21 -22 -53q-6 -8 -12 -19l-254 -392q-144 262 -217 392q-1 4 -5 11q-4 9 -8 15q-18 34 -18 44q0 20 20 33q21 15 51 14v41h-359v-41z" />
<glyph unicode="Z" horiz-adv-x="1008" d="M40 0h132h579h207l20 272h-41q1 -4 0 -8q0 -3 -2 -9q-1 -6 -1 -9q-9 -75 -54 -123q-44 -48 -113 -51h-36h-505l325 440l386 521v6v49h-132h-497h-207l-20 -272h41v8q2 4 2 9q2 6 1 9q9 74 54 122t113 51h36h424l-373 -503l-339 -458v-18v-36z" />
<glyph unicode="[" horiz-adv-x="372" d="M40 -154v1395v26h312v-41h-186v-1365h186v-41h-312v26z" />
<glyph unicode="\" horiz-adv-x="582" d="M10 1159l486 -1335h76l-486 1335h-76z" />
<glyph unicode="]" horiz-adv-x="372" d="M20 -139v-41h312v26v1395v26h-312v-41h186v-1365h-186z" />
<glyph unicode="^" horiz-adv-x="646" d="M30 803l223 283h138l225 -283l-66 -51l-228 231l-227 -231z" />
<glyph unicode="_" horiz-adv-x="1256" d="M40 -167h1176v-72h-1176v72z" />
<glyph unicode="`" horiz-adv-x="516" d="M74 1271q-4 -39 32 -74q30 -23 103 -97q70 -66 127 -124l56 -55l54 47q-165 260 -210 342q-24 44 -64 47q-40 6 -67 -20q-28 -27 -31 -66z" />
<glyph unicode="a" horiz-adv-x="782" d="M44 130q13 -78 74 -116q60 -35 149 -35h5q135 3 255 84q22 -53 97 -71q31 -7 59 -7q41 0 79 15v40q-14 -2 -20 -2h-7q-41 0 -63 23q-24 25 -24 69v205v136q0 72 -10 118q-8 48 -38 78q-76 84 -219 84q-95 0 -167 -34q-64 -32 -95 -83q-21 -35 -21 -70q0 -16 4 -32 q2 0 1 -1v-1q8 -30 34 -47q27 -16 59 -13q35 6 55 32q21 27 16 60q-2 12 -12 34q-9 23 -14 37q-3 15 8 31q13 16 47 24q38 9 71 9q45 0 81 -17q26 -12 40 -31q15 -17 21 -48q7 -30 7 -51q1 -14 1 -39v-27v-26q-229 -80 -299 -106q-94 -36 -133 -78q-44 -48 -44 -111 q0 -16 3 -33zM198 211q20 69 194 136q22 9 100 40l25 10v-278q-26 -15 -75 -31q-48 -16 -82 -19q-15 -1 -29 -1q-48 0 -80 16q-41 22 -52 55q-5 18 -5 37q0 17 4 35z" />
<glyph unicode="b" horiz-adv-x="936" d="M20 1061q12 1 16 -1q50 -5 70 -22q21 -16 21 -60v-1011h44l90 85q111 -76 249 -76q171 0 283 112q113 112 113 277q0 160 -112 271q-112 112 -284 112q-138 0 -249 -76v450l-241 -20v-41zM261 248v269q1 57 35 97q36 40 78 55q44 17 86 17h8q102 0 184 -78 q86 -81 107 -213q6 -34 6 -68q0 -51 -14 -99q-21 -78 -72 -130t-119 -61q0 1 -11 -1q-9 -2 -15 -2q-96 0 -173 62q-76 64 -100 152z" />
<glyph unicode="c" horiz-adv-x="776" d="M30 366q0 -158 110 -264q111 -106 285 -121q27 -2 53 -2q148 0 278 71l-41 53q-45 -28 -115 -46q-62 -15 -113 -15h-12q-108 6 -194 83q-84 79 -105 208q-6 36 -6 70q0 93 43 168q60 105 162 119q33 5 61 5q85 0 122 -46q12 -9 5 -23q-5 -12 -17 -21q-12 -7 -24 -25 q-13 -20 -13 -41q0 -39 35 -65q2 0 4 -2l6 -3q16 -9 37 -9q12 0 16 1q21 3 34 13q46 31 46 86v11q-4 65 -60 111q-79 69 -202 69h-9q-163 0 -273 -110q-113 -113 -113 -275z" />
<glyph unicode="d" horiz-adv-x="936" d="M30 370q0 -162 112 -274q114 -112 284 -112q138 0 249 76v-60h241v41q-12 1 -17 1q-87 12 -90 102v978l-240 -20v-41q12 1 16 -1q50 -5 69 -22q21 -16 21 -60v-93v-111v-94q-111 76 -249 76q-170 0 -283 -112t-113 -274zM177 336q-6 36 -6 69q0 93 43 170q60 106 162 120 q14 2 21 2h5h6q93 0 167 -62q78 -63 100 -151v-269q1 -56 -35 -97q-34 -40 -77 -56q-42 -15 -86 -17h-8q-102 0 -185 78q-86 81 -107 213z" />
<glyph unicode="e" horiz-adv-x="848" d="M30 366q0 -157 111 -264q111 -106 284 -121q27 -2 53 -2q156 0 276 72l-39 51q-92 -60 -223 -60h-17q-108 4 -194 82q-84 78 -105 208q-4 36 -5 60h503h144q-11 152 -121 255q-109 104 -269 104h-3.5h-2.5q-169 0 -280 -111q-112 -112 -112 -274zM176 464q14 92 67 154 q55 63 131 72q18 2 26 2q84 0 156 -63t103 -165h-483z" />
<glyph unicode="f" horiz-adv-x="663" d="M30 658h148v-537q-3 -41 -23 -57q-19 -16 -67 -22q-4 0 -16 -1v-41h347v41q-11 1 -17 1q-48 6 -67 22t-23 57v537h213v72h-213v206q1 24 8 50q9 27 33 55q25 30 63 34q20 3 32 -1q12 -3 16 -15t4 -21q2 -9 0 -27q-2 -17 -2 -25q0 -33 24 -57q24 -23 58 -25q36 -2 58 18 q24 20 24 53v7q0 51 -55 92q-58 45 -136 48q-11 1 -21 1q-95 0 -157 -51q-83 -68 -83 -191v-151h-148v-72z" />
<glyph unicode="g" horiz-adv-x="894" d="M43 -155q-2 -14 -2 -28q0 -58 41 -104q52 -55 145 -79q73 -18 173 -20h20q91 0 170 16q126 26 199 94q69 66 69 161q0 9 -1 18q-10 171 -282 214q-35 7 -131 16q-92 10 -130 16q-74 13 -80 47q-2 18 16 36t47 22q76 -30 148 -31h10q129 0 222 73q97 76 97 184 q0 76 -49 140q-11 16 -37 39h172v71h-296q-74 22 -136 22q-132 -2 -222 -76q-90 -75 -90 -181q0 -63 35 -118q38 -56 96 -95q-131 -62 -135 -132v-5q0 -76 116 -119q22 -6 48 -11q-70 -6 -146 -54q-75 -47 -87 -116zM164 -201q-2 14 -2 26q0 19 4 33q8 26 24 46 q66 76 186 97q74 -1 162 -17q102 -18 152 -55q52 -36 50 -93q0 -46 -42 -85q-42 -40 -117 -60q-68 -16 -150 -19q-75 0 -146 19q-53 17 -86 47q-29 30 -35 61zM266 440q-10 37 -10 73q0 51 21 97q36 78 108 94q21 4 41 4q25 0 49 -7q42 -11 70 -41q29 -28 47 -60t26 -62 q10 -37 10 -71q0 -51 -21 -98q-34 -79 -109 -95q-20 -4 -40 -4q-55 0 -104 33q-64 47 -88 137z" />
<glyph unicode="h" d="M20 0h351v41q-11 1 -17 1q-48 6 -68 22t-24 57v303q2 72 52 139q52 69 105 91q35 15 73 15q26 0 53 -7q67 -16 100 -61q39 -53 39 -140v-342q-3 -39 -24 -55q-20 -16 -68 -22q-4 0 -17 -1v-41h351v41q-9 1 -15 1q-46 6 -67 21t-25 53v359q0 93 -27 145q-32 62 -83 94 q-61 38 -119 41q-17 2 -34 1q-58 0 -115 -18q-45 -14 -98 -51q-53 -36 -81 -84v519l-242 -20v-40q10 0 15 -1q48 -6 69 -24t24 -58v-858q-2 -41 -23 -57q-19 -16 -69 -22q-4 0 -16 -1v-41z" />
<glyph unicode="i" horiz-adv-x="392" d="M20 2h352v41q-12 1 -17 1q-47 6 -68 22q-20 16 -24 57v631l-243 -20v-40q12 0 16 -1q48 -6 69 -24t24 -58v-488q-3 -41 -23 -57t-69 -22q-5 0 -17 -1v-41zM94 986q0 -40 29 -70q31 -30 71 -30q41 0 70 29q30 31 30 71q0 42 -29 70q-29 30 -71 30q-40 0 -70 -29t-30 -71z " />
<glyph unicode="j" horiz-adv-x="547" d="M33 -222v-5q0 -51 55 -94q60 -44 136 -48h15q101 0 164 50q82 68 82 191v880l-242 -20v-40q12 0 16 -1q49 -5 70 -23q22 -18 22 -59v-792q1 -22 -8 -50q-7 -27 -32 -56q-24 -27 -63 -33q-20 -2 -32 1t-16 15q-2 12 -4 21q-1 9 0 27q2 18 2 25q1 33 -24 57q-24 24 -59 25 q-34 3 -58 -18q-22 -20 -24 -53zM317 1003q-1 -40 29 -70t71 -30h3q39 0 67 29q30 30 30 74q0 40 -29 67q-30 30 -71 30h-3q-38 0 -67 -29q-30 -30 -30 -71z" />
<glyph unicode="k" horiz-adv-x="862" d="M20 0h371v41q-11 1 -17 1q-52 8 -81 23q-27 17 -31 56v101l125 125l244 -347h211v41q-90 9 -163 114l-198 287q103 102 154 152q3 2 14 14l15 15l13 13q12 10 15 13q4 3 13 10q9 9 15 11q6 4 15 8q9 6 16 7q7 3 16 4q9 3 18 2v39h-243v-39q20 1 34 -9q14 -9 14 -24 q0 -6 -5 -14v-1q1 -1 -1 -1q-16 -20 -51 -54l-271 -279v813l-242 -20v-40q10 0 15 -1q48 -6 69 -24t24 -58v-858q-3 -41 -24 -57q-20 -16 -69 -22q-5 0 -15 -1v-41z" />
<glyph unicode="l" horiz-adv-x="392" d="M20 0h352v41q-12 1 -17 1q-47 6 -68 22q-20 16 -24 57v1001l-243 -20v-40q12 0 16 -1q48 -6 69 -24t24 -58v-858q-3 -41 -23 -57t-69 -22q-5 0 -17 -1v-41z" />
<glyph unicode="m" horiz-adv-x="1502" d="M20 0h351v41q-10 1 -16 1q-48 6 -69 22q-20 16 -24 57v304q2 71 52 139q52 69 105 91q38 16 76 16q25 0 51 -7q66 -16 100 -62q38 -52 38 -140v-343q-3 -39 -24 -55q-20 -16 -68 -22q-4 0 -16 -1v-41h351v41q-10 1 -16 1q-46 6 -67 21t-25 53v340q12 66 60 122 q49 57 95 77q38 16 76 16q25 0 51 -7q67 -16 100 -62q39 -52 39 -140v-343q-3 -39 -24 -55t-69 -22q-4 0 -16 -1v-41h351v41q-10 1 -16 1q-46 6 -67 21t-25 53v360q0 93 -27 145q-31 63 -82 94q-54 35 -120 41q-17 2 -35 2q-52 0 -114 -19q-40 -12 -89 -45q-48 -32 -80 -76 l-21 -28q-3 16 -12 31q-32 63 -83 94q-55 35 -119 41q-17 2 -36 2q-53 0 -115 -19q-45 -13 -98 -51q-53 -36 -81 -84v148l-242 -20v-40q12 0 16 -1q50 -5 70 -20t23 -54v-496q-3 -41 -24 -57q-19 -16 -69 -22q-4 0 -16 -1v-41z" />
<glyph unicode="n" d="M20 0h351v41q-11 1 -17 1q-48 6 -68 22t-24 57v303q2 72 52 139q52 69 105 91q35 15 73 15q26 0 53 -7q67 -16 100 -61q39 -53 39 -140v-342q-3 -39 -24 -55q-20 -16 -68 -22q-4 0 -17 -1v-41h351v41q-9 1 -15 1q-46 6 -67 21t-25 53v359q0 93 -27 145q-32 62 -83 94 q-60 38 -120 41q-16 2 -33 1q-57 0 -115 -18q-45 -14 -98 -51q-53 -36 -81 -84v147l-242 -20v-39q6 1 15 -2q48 -6 69 -24t24 -58v-486q-2 -41 -23 -57q-19 -16 -69 -22q-4 0 -16 -1v-41z" />
<glyph unicode="o" horiz-adv-x="850" d="M30 365q0 -159 116 -273q117 -112 279 -113q163 1 279 113q116 114 116 273q0 161 -116 273q-115 113 -276 113h-2.5h-3.5q-160 0 -276 -113q-116 -112 -116 -273zM184 335q-6 39 -6 75q0 90 39 163q57 105 156 117q6 1 15 1h10h2q91 0 168 -85q78 -84 98 -211 q7 -39 7 -75q0 -88 -40 -163q-56 -103 -156 -117q-12 -1 -24 -1q-85 0 -161 75q-86 87 -108 221z" />
<glyph unicode="p" horiz-adv-x="936" d="M20 -346v-40h351v40q-7 0 -17 2q-48 6 -68 22t-24 57v100v120v101q112 -76 249 -77q171 1 283 112q112 112 112 274q0 163 -112 274q-112 112 -283 112q-138 0 -249 -76v60l-242 -20v-39q6 0 15 -2q49 -6 69 -23q21 -18 24 -58v-858q-2 -41 -23 -57q-19 -16 -69 -22 q-10 -2 -16 -2zM262 252v249q0 86 60 134q60 50 139 56q9 1 25 1q98 0 176 -84q80 -84 98 -209q5 -34 5 -67q0 -51 -13 -100q-21 -78 -72 -130q-50 -52 -119 -61q-1 1 -11 -1q-9 -2 -15 -2h-11q-85 0 -161 59q-81 65 -101 155z" />
<glyph unicode="q" horiz-adv-x="936" d="M30 365q0 -162 112 -274q114 -111 284 -112q138 1 249 76v-450l241 20v41q-10 0 -16 1q-50 6 -70 22q-20 18 -21 60v1011h-44l-90 -85q-111 76 -249 76q-170 0 -283 -112q-113 -111 -113 -274zM177 331q-6 36 -6 70q0 93 43 169q60 106 162 120q18 2 26 2h6q92 0 167 -62 q78 -64 100 -151v-269q1 -44 -20 -78q-19 -33 -51 -53q-32 -18 -64 -28q-32 -9 -64 -11h-7q-101 0 -185 78q-86 81 -107 213z" />
<glyph unicode="r" horiz-adv-x="672" d="M20 0h347v41q-11 1 -17 1q-48 6 -67 22t-23 58v378q0 86 54 139q54 54 118 60q26 5 37 1q13 -4 17 -8q6 -3 3 -13q-3 -9 -7 -18q-2 -7 -8 -20q-4 -13 -5 -23q0 -33 24 -57q25 -24 58 -24q32 -1 54 19q23 21 29 51q3 15 3 28q0 52 -44 84q-55 41 -139 41h-5 q-53 0 -102 -22q-51 -22 -87 -58v71l-240 -20v-41q12 0 16 -1q48 -5 67 -23q21 -18 23 -59v-485q-3 -42 -23 -58q-19 -16 -67 -22q-4 0 -16 -1v-41z" />
<glyph unicode="s" horiz-adv-x="677" d="M43 -15h41q0 12 1 16q1 9 2 15q3 6 5 9l6 6q2 3 8 3h9q4 0 12 -3q9 -2 12 -4q4 -2 13 -6q10 -3 15 -6q67 -27 139 -34q22 -1 42 -1q34 0 66 3q51 8 96 26q46 19 77 58q32 40 42 96q4 23 4 44q0 71 -46 125q-43 52 -175 92q-22 7 -62 18q-38 12 -58 18q-18 6 -44 16 t-43 21q-16 11 -31 25q-22 22 -25 57q0 5 -1 11q0 29 15 52q17 30 62 44q32 10 69 10q16 0 33 -2q69 -8 116 -31q63 -32 92 -134q2 -3 2 -8q2 -6 2 -9h41l-9 237h-41q0 -6 -2 -16q-2 -13 -6 -21q-3 -6 -12 -7q-8 -1 -15 2q-5 3 -20 9q-14 6 -24 9q-67 22 -129 25 q-15 1 -28 1q-133 0 -203 -78q-25 -28 -38 -73q-7 -24 -7 -51q0 -22 5 -47q12 -54 51 -94q22 -20 58 -40q38 -18 63 -28q27 -8 83 -26q58 -16 74 -22q100 -30 125 -75q13 -24 13 -52v-10q-2 -32 -20 -56q-22 -31 -64 -48q-40 -16 -79 -16h-5q-42 3 -84 9q-141 33 -179 175 l-3 17h-41v-251z" />
<glyph unicode="t" horiz-adv-x="562" d="M30 658h149q-1 -345 -1 -485q0 -27 2 -48t14 -50t32 -49q22 -20 62 -34q39 -13 91 -13h7q78 1 146 46v36q-45 -11 -80 -11q-20 0 -36 4q-104 24 -104 131l1 473h212v72h-212l-1 260h-43l-90 -85v-175h-149v-72z" />
<glyph unicode="u" d="M20 691q12 1 16 -1q48 -6 68 -23t23 -59v-344q0 -90 27 -144q32 -62 83 -94q60 -36 120 -41q15 -1 30 -1q62 0 118 17q45 15 98 51q54 38 81 84v-156l242 20v40q-10 0 -16 1q-48 5 -68 23q-21 18 -24 59v483v145l-243 -20v-40q12 1 16 -1q50 -5 71 -24q22 -18 22 -60 v-290q0 -71 -52 -139q-51 -67 -105 -91q-37 -16 -76 -16q-25 0 -51 7q-66 17 -100 61q-38 52 -38 141v472l-242 -20v-40z" />
<glyph unicode="v" horiz-adv-x="900" d="M20 690q14 0 18 -1q70 -8 104 -89l265 -598v-2h95q16 56 62 159q48 105 116 248q70 145 101 214q28 63 79 68h10q8 1 10 1v41h-50h-97h-107v-41q2 1 8 0q6 0 8 -1q46 -3 56 -27q3 -7 3 -17q0 -24 -18 -66l-197 -441l-203 462q-11 25 -11 43q0 38 50 46q6 1 18 1v41h-115 h-140h-65v-41z" />
<glyph unicode="w" horiz-adv-x="1326" d="M20 690q2 0 8 -1t9 -1q32 -4 60 -29q30 -24 42 -57q33 -86 89 -237q56 -150 95 -258l39 -107h97l219 582l217 -582h95q156 417 233 623q24 61 64 65q3 0 9 1q8 1 10 1v40h-240v-40q12 -2 16 -2q48 -2 57 -23q4 -7 4 -19q0 -23 -14 -62l-158 -428l-203 554h-116l-212 -554 q-112 310 -163 446q-12 32 2 55q15 25 44 29q7 2 17 1v43h-320v-40z" />
<glyph unicode="x" horiz-adv-x="878" d="M20 0h228v41q-20 0 -34 9q-14 10 -14 23q0 9 6 15q4 6 30 34q8 10 14 16l7 7q2 1 2 2q2 3 5 6q26 30 76 84q50 55 70 76q38 -47 92 -117l43 -55q33 -43 40 -58q3 -3 2 -10q1 -12 -14 -22q-13 -9 -34 -10v-41h319v41q-78 9 -145 94l-216 274l169 186q28 31 45 47 q17 18 43 32q27 16 53 16v40h-241v-40q20 0 34 -9q15 -9 15 -24q1 -7 -7 -16q-16 -21 -43 -52l-11 -13l-100 -113l-95 121l-20 24q-15 20 -26 34q-6 10 -6 15q0 15 14 23q15 10 35 10v40h-317v-40q75 -6 146 -95l180 -225l-204 -235q-29 -31 -44 -47t-41 -31t-56 -16v-41z " />
<glyph unicode="y" horiz-adv-x="900" d="M20 690q30 -2 52 -16q23 -12 40 -36q18 -22 29 -42t25 -51l249 -564q-17 -45 -29 -71q-12 -25 -31 -68q-18 -42 -33 -68q-14 -24 -32 -51q-17 -25 -34 -37q-16 -12 -32 -10q-12 3 -18 12q-6 10 -6 21q1 12 2 30q3 20 1 29q-1 34 -25 57q-24 24 -57 24t-58 -24 q-24 -24 -24 -57q1 -10 4 -26q14 -46 65 -80q52 -34 115 -34q85 0 141 90q40 64 139 282q162 364 243 544q16 36 25 54q11 18 27 43q18 25 37 36q21 13 45 13v40h-212v-40q20 0 33 -9q15 -9 14 -23q0 -6 -3 -12q-8 -22 -14 -34l-7 -14q0 -2 -2 -5q0 -3 -6 -14l-5 -11 l-193 -432q-123 286 -186 427q-3 6 -8 18t-8 18q-3 9 -8 20q-4 11 -8 19q-3 9 -4 9q-3 6 -3 10q0 15 14 23q15 10 35 10v40h-289v-40z" />
<glyph unicode="z" horiz-adv-x="726" d="M40 0h646v25v47v109h-41q1 -10 -1 -16q-6 -49 -22 -70q-15 -21 -57 -23h-347l448 606v52h-606v-25v-47v-109h41q1 13 1 17q6 49 22 69q16 21 57 23h308l-449 -606v-52z" />
<glyph unicode="{" horiz-adv-x="606" d="M40 524q84 1 144 -60q60 -60 60 -144l-1 -270q1 -94 67 -162q68 -68 162 -68h114v41q-74 -3 -122 13q-47 16 -67 46q-19 31 -25 72q-4 42 -2 91q4 49 8 100q6 51 0 102t-24 96q-17 45 -64 83q-46 39 -120 60v40q74 22 119 60q47 38 65 82q18 45 23 96q7 52 2 102 q-4 52 -8 100q-3 49 1 90q5 42 24 72q20 32 67 47q48 16 123 13v41h-114q-94 1 -162 -67q-66 -66 -67 -162l1 -271q0 -83 -60 -143t-144 -60v-20v-20z" />
<glyph unicode="|" horiz-adv-x="188" d="M40 0v1447h108v-1447h-108z" />
<glyph unicode="}" horiz-adv-x="606" d="M20 -139q74 -3 122 13t67 46q21 31 25 72q6 42 2 91q-2 49 -8 100q-5 51 0 102q6 51 24 96t64 83q48 39 120 60v40q-72 22 -119 60t-65 82q-18 45 -23 96q-6 52 -2 102q5 52 8 100q5 49 -1 90q-4 42 -24 72q-20 32 -67 47q-48 16 -123 13v41h114q96 1 162 -67 q68 -66 67 -162l-1 -271q0 -83 60 -143t144 -60v-20v-20q-84 1 -144 -60q-60 -60 -60 -144l1 -270q1 -94 -67 -162q-66 -68 -162 -68h-114v41z" />
<glyph unicode="~" horiz-adv-x="888" d="M30 440l36 -18q15 33 30 57q16 25 30 41q14 18 32 26q19 10 32 14q14 6 35 3t34 -6q15 -2 38 -13q25 -10 37 -17q14 -6 40 -21q27 -14 41 -21q15 -6 43 -21q28 -14 43 -22q85 -42 175 -13q90 32 132 116l50 102l-36 18q-14 -32 -30 -57q-15 -24 -30 -41q-13 -17 -32 -26 q-18 -9 -32 -14t-35 -2q-20 3 -34 6q-13 3 -37 13t-38 17t-40 21q-26 15 -41 21q-13 7 -42 21q-29 16 -44 22q-85 44 -175 13q-90 -30 -132 -117z" />
<glyph unicode="&#xa1;" horiz-adv-x="260" d="M30 1020q0 40 29 70q31 30 71 30q41 1 70 -29q30 -30 30 -71q0 -42 -29 -70q-29 -30 -71 -30q-40 -1 -70 29t-30 71zM34 70q0 26 7 74q7 47 23 221q18 174 34 461h64q15 -224 27 -382q13 -159 20 -216q9 -58 12 -96q5 -39 5 -62q0 -43 -27 -71q-27 -30 -69 -29 q-40 -1 -68 29q-28 28 -28 71z" />
<glyph unicode="&#xa3;" horiz-adv-x="850" d="M40 0h780v148h-650q242 102 224 379h261v72h-270q-17 99 -59 209q-21 62 -18 114q4 54 40 91q38 39 99 45q37 4 79 -10q44 -14 70 -44q12 -8 7 -22q-4 -12 -16 -21q-10 -7 -24 -25q-13 -18 -16 -39q-7 -46 40 -70q48 -23 92 3q49 30 43 92q-4 64 -57 115q-82 81 -223 82 q-56 1 -113 -21q-57 -21 -104 -65q-45 -43 -60 -107t14 -148q35 -92 51 -179h-190v-72h202q12 -63 5 -128q-6 -65 -24 -119q-17 -54 -65 -95q-46 -42 -118 -57v-128z" />
<glyph unicode="&#xa8;" horiz-adv-x="1178" d="M30 1314q0 -40 29 -70q31 -30 71 -30q41 0 70 29q30 31 30 71q0 42 -29 70q-29 30 -71 30q-40 0 -70 -29t-30 -71zM500 1314q0 -40 29 -70q31 -30 71 -30q41 0 70 29q30 31 30 71q0 42 -29 70q-29 30 -71 30q-40 0 -70 -29t-30 -71z" />
<glyph unicode="&#xad;" horiz-adv-x="668" d="M40 323v84h588v-84h-588z" />
<glyph unicode="&#xaf;" horiz-adv-x="781" d="M30 1163v92h721v-92h-721z" />
<glyph unicode="&#xb0;" horiz-adv-x="485" d="M30 907q0 43 18 81q18 40 48 68q30 30 68 46q39 18 78 17q38 1 77 -17q39 -16 69 -46q30 -28 48 -67q20 -39 19 -82q1 -45 -18 -83t-49 -68q-30 -28 -68 -45q-39 -17 -78 -17t-78 16q-38 18 -68 46q-30 29 -48 67q-18 39 -18 84zM122 907q0 -50 38 -87q39 -36 85 -37 q46 0 85 36q39 37 39 88t-39 87t-85 36t-85 -36q-38 -36 -38 -87z" />
<glyph unicode="&#xb4;" horiz-adv-x="517" d="M70 968q166 260 211 342q24 44 64 47q40 6 67 -20q30 -27 31 -66q4 -39 -32 -74q-29 -23 -103 -97q-70 -66 -127 -124l-57 -55z" />
<glyph unicode="&#xb8;" horiz-adv-x="1178" d="M19 -329q-2 31 24 47q8 4 17 7q8 1 9 1q9 0 17 -5q0 1 1 -1q3 0 2 -2q19 -12 16 -32q1 -10 -7 -19q-6 -9 -14 -14q-6 -4 -9 -10q-3 -4 5 -10q26 -29 71 -26q33 1 53 15q22 15 32 36q12 21 16 41q6 21 6 42q4 27 -4 53q-6 27 -30 49q-22 24 -55 34q-14 3 -48 2v17 q1 12 2 42q3 30 4 59h35l-5 -86q40 1 73 -13q32 -12 52 -30q20 -16 32 -40q14 -24 18 -45q6 -21 5 -39q-1 -28 -14 -59q-12 -30 -36 -54q-23 -23 -59 -38t-79 -15q-66 0 -104 40q-23 24 -26 53z" />
<glyph unicode="&#xbf;" horiz-adv-x="720" d="M30 310q0 -61 23 -120q22 -60 67 -110q44 -50 118 -80q74 -32 166 -31q138 0 223 82q52 50 58 111q4 60 -44 96q-15 10 -34 13q-10 2 -16 2q-21 0 -37 -9q-2 -2 -10 -6q-36 -27 -35 -67q-1 -21 13 -39q12 -18 25 -26q11 -8 17 -20t-6 -22q-58 -62 -157 -54q-63 2 -106 32 q-45 28 -65 72q-21 43 -29 84q-9 40 -8 85q-1 55 16 108q15 52 65 102q48 48 124 66q30 6 98 9v33v84v120h-73v-175q-84 -2 -153 -25q-70 -25 -113 -61q-43 -38 -72 -84q-30 -48 -42 -89q-13 -43 -13 -81zM360 1019q0 -42 29 -70q29 -30 71 -30q40 -1 70 29q28 30 29 71 q-1 40 -29 70q-30 30 -70 30q-41 1 -70 -29q-30 -30 -30 -71z" />
<glyph unicode="&#xc0;" horiz-adv-x="1248" d="M20 0h283v41q-30 0 -51 12q-21 13 -21 33q-1 6 5 20l133 306h436q15 -33 110 -253q9 -18 23 -57q3 -6 3 -16q1 -19 -20 -32q-21 -12 -52 -13v-41h118h161h80v41q-22 3 -43 12q-21 10 -36 20q-14 11 -31 32q-16 23 -26 35q-8 14 -23 41q-13 29 -19 39q-4 12 -18 41 l-364 827h-79q-19 -58 -73 -180q-52 -120 -151 -336t-135 -297q-2 -5 -14 -31q-10 -25 -14 -32q-3 -6 -15 -29q-10 -21 -16 -29q-5 -8 -17 -26q-12 -17 -20 -25q-8 -7 -22 -20t-27 -19q-12 -5 -30 -12q-17 -6 -35 -11v-41zM401 484q138 312 186 421q93 -207 187 -421h-373z M440 1540q-4 -40 32 -74q30 -24 103 -97q70 -67 127 -124l56 -55l54 47q-165 260 -210 342q-24 44 -64 47q-40 6 -67 -20q-28 -27 -31 -66z" />
<glyph unicode="&#xc1;" horiz-adv-x="1248" d="M20 0h283v41q-30 0 -51 12q-21 13 -21 33q-1 6 5 20l133 306h436q15 -33 110 -253q9 -18 23 -57q3 -6 3 -16q1 -19 -20 -32q-21 -12 -52 -13v-41h118h161h80v41q-22 3 -43 12q-21 10 -36 20q-14 11 -31 32q-16 23 -26 35q-8 14 -23 41q-13 29 -19 39q-4 12 -18 41 l-364 827h-79q-19 -58 -73 -180q-52 -120 -151 -336t-135 -297q-2 -5 -14 -31q-10 -25 -14 -32q-3 -6 -15 -29q-10 -21 -16 -29q-5 -8 -17 -26q-12 -17 -20 -25q-8 -7 -22 -20t-27 -19q-12 -5 -30 -12q-17 -6 -35 -11v-41zM401 484q138 312 186 421q93 -207 187 -421h-373z M436 1237q166 260 211 342q24 44 64 47q40 6 67 -20q30 -27 31 -66q4 -40 -32 -74q-27 -24 -103 -97q-68 -67 -127 -124l-57 -55z" />
<glyph unicode="&#xc2;" horiz-adv-x="1248" d="M20 0h283v41q-30 0 -51 12q-21 13 -21 33q-1 6 5 20l133 306h436q15 -33 110 -253q9 -18 23 -57q3 -6 3 -16q1 -19 -20 -32q-21 -12 -52 -13v-41h118h161h80v41q-22 3 -43 12q-21 10 -36 20q-14 11 -31 32q-16 23 -26 35q-8 14 -23 41q-13 29 -19 39q-4 12 -18 41 l-364 827h-79q-19 -58 -73 -180q-52 -120 -151 -336t-135 -297q-2 -5 -14 -31q-10 -25 -14 -32q-3 -6 -15 -29q-10 -21 -16 -29q-5 -8 -17 -26q-12 -17 -20 -25q-8 -7 -22 -20t-27 -19q-12 -5 -30 -12q-17 -6 -35 -11v-41zM331 1241l220 283h144l222 -283l-69 -51l-225 231 l-236 -231zM401 484q138 312 186 421q93 -207 187 -421h-373z" />
<glyph unicode="&#xc3;" horiz-adv-x="1248" d="M20 0h283v41q-30 0 -51 12q-21 13 -21 33q-1 6 5 20l133 306h436q15 -33 110 -253q9 -18 23 -57q3 -6 3 -16q1 -19 -20 -32q-21 -12 -52 -13v-41h118h161h80v41q-22 3 -43 12q-21 10 -36 20q-14 11 -31 32q-16 23 -26 35q-8 14 -23 41q-13 29 -19 39q-4 12 -18 41 l-364 827h-79q-19 -58 -73 -180q-52 -120 -151 -336t-135 -297q-2 -5 -14 -31q-10 -25 -14 -32q-3 -6 -15 -29q-10 -21 -16 -29q-5 -8 -17 -26q-12 -17 -20 -25q-8 -7 -22 -20t-27 -19q-12 -5 -30 -12q-17 -6 -35 -11v-41zM293 1226l29 -15q12 28 23 49q13 22 24 37t26 22 q15 9 26 12q12 6 28 3q17 -2 27 -5q11 -3 30 -11q21 -9 30 -15q10 -5 32 -18t33 -19q12 -6 34 -19q23 -13 35 -19q68 -38 140 -11t105 102l40 90l-29 15q-10 -27 -23 -49q-12 -21 -24 -37q-11 -14 -26 -22q-15 -7 -26 -12q-10 -5 -28 -3q-15 3 -27 5q-10 2 -30 11l-30 15 q-10 8 -32 19q-21 13 -33 19q-10 6 -34 18q-23 14 -35 20q-68 38 -140 11t-105 -103zM401 484q138 312 186 421q93 -207 187 -421h-373z" />
<glyph unicode="&#xc4;" horiz-adv-x="1248" d="M20 0h283v41q-30 0 -51 12q-21 13 -21 33q1 6 5 20l11 27q3 7 7 17q2 2 1 2q2 2 2 4q37 84 112 256h436q14 -33 43 -99q30 -66 43 -96l24 -58q9 -18 23 -57q3 -6 3 -16q1 -19 -20 -32q-21 -12 -52 -13v-41h118h161h80v41q-22 3 -43 12q-21 10 -36 20q-14 11 -31 32 q-16 23 -26 35q-8 14 -23 41q-13 29 -19 39q-4 12 -18 41l-364 827h-79q-19 -58 -73 -180q-52 -120 -151 -336t-135 -297q-2 -5 -14 -31q-10 -25 -14 -32q-3 -6 -15 -29q-10 -21 -16 -29q-5 -8 -17 -26q-12 -17 -20 -25q-8 -7 -22 -20t-27 -19q-12 -5 -30 -12 q-17 -6 -35 -11v-41zM289 1355q-1 -40 29 -70t71 -30q41 -1 70 29q30 30 30 71q1 42 -29 70q-30 30 -71 30q-40 1 -70 -29t-30 -71zM401 484q138 312 186 421q93 -207 187 -421h-373zM759 1355q-1 -40 29 -70t71 -30q41 -1 70 29q30 30 30 71q1 42 -29 70q-30 30 -71 30 q-40 1 -70 -29t-30 -71z" />
<glyph unicode="&#xc5;" horiz-adv-x="1248" d="M20 0h283v41q-30 0 -51 12q-21 13 -21 33q-1 6 5 20l133 306h436q15 -33 110 -253q9 -18 23 -57q3 -6 3 -16q1 -19 -20 -32q-21 -12 -52 -13v-41h118h161h80v41q-22 3 -43 12q-21 10 -36 20q-14 11 -31 32q-16 23 -26 35q-8 14 -23 41q-13 29 -19 39q-4 12 -18 41 l-364 827h-79q-19 -58 -73 -180q-52 -120 -151 -336t-135 -297q-2 -5 -14 -31q-10 -25 -14 -32q-3 -6 -15 -29q-10 -21 -16 -29q-5 -8 -17 -26q-12 -17 -20 -25q-8 -7 -22 -20t-27 -19q-12 -5 -30 -12q-17 -6 -35 -11v-41zM401 484q138 312 186 421q93 -207 187 -421h-373z M412 1403q0 43 18 81q18 40 48 68q30 30 68 46q39 18 78 17q38 1 77 -17q39 -16 69 -46q30 -28 48 -67q20 -39 19 -82q1 -45 -18 -83t-49 -68q-30 -28 -68 -45q-39 -17 -78 -17t-78 16q-38 18 -68 46q-30 29 -48 67q-18 39 -18 84zM504 1403q0 -50 38 -87q39 -36 85 -37 q46 0 85 36q39 37 39 88t-39 87t-85 36t-85 -36q-38 -36 -38 -87z" />
<glyph unicode="&#xc7;" horiz-adv-x="1126" d="M30 546q0 -124 50 -230q51 -106 135 -176q85 -69 187 -113q104 -42 214 -54q146 -15 274 16q129 32 216 86l-42 55q-53 -39 -160 -66q-106 -27 -202 -19q-189 17 -319 134q-129 119 -165 321q-24 134 10 254t114 197q80 78 188 94q162 27 283 -56q51 -33 92 -94 q41 -59 59 -115q6 -22 6 -26h43l-16 324h-42q1 -8 -2 -26q-1 -20 -8 -28q-5 -8 -20 -5q-13 5 -27 11q-12 8 -35 20q-23 14 -39 21q-104 48 -208 48q-162 0 -295 -70q-132 -69 -212 -202q-79 -131 -79 -301zM490 -364q-2 30 24 47q8 4 17 7q7 2 9 1q8 1 17 -5q-1 0 1 -1 q2 0 2 -2q18 -12 16 -32q0 -10 -7 -19q-6 -8 -14 -14q-6 -4 -9 -10q-3 -4 5 -10q26 -28 71 -26q32 1 53 15q22 15 32 36q12 21 16 41q6 21 6 42q3 27 -4 53q-6 27 -30 49q-22 24 -55 34q-14 2 -48 2v17q1 12 2 42q2 31 4 59h35l-5 -86q40 0 73 -13q33 -12 52 -30 q21 -16 32 -40q14 -23 18 -45q5 -21 5 -39q-1 -29 -14 -59q-12 -30 -36 -54q-22 -24 -59 -38q-35 -15 -79 -15q-66 1 -104 40q-24 23 -26 53z" />
<glyph unicode="&#xc8;" horiz-adv-x="982" d="M20 0h276h419h227v272h-41q1 -8 -2 -26q-21 -168 -148 -174h-36h-419v485h296q90 -7 100 -93q2 -4 1 -36h40v330h-40q1 -32 -1 -37q-10 -83 -100 -92h-296v386h357h36q68 -3 112 -50q45 -48 56 -134q3 -9 2 -15h41l-20 272h-207h-377h-276v-40q32 0 36 -1q48 -6 69 -24 t24 -58v-842q-3 -39 -24 -58q-21 -18 -69 -24q-4 -1 -36 -1v-40zM297 1540q-3 -40 32 -74q31 -24 103 -97q70 -67 127 -124l56 -55l54 47q-165 260 -210 342q-24 44 -64 47q-40 6 -67 -20q-28 -27 -31 -66z" />
<glyph unicode="&#xc9;" horiz-adv-x="982" d="M20 0h276h419h227v272h-41q1 -8 -2 -26q-21 -168 -148 -174h-36h-419v485h296q90 -7 100 -93q2 -4 1 -36h40v330h-40q1 -32 -1 -37q-10 -83 -100 -92h-296v386h357h36q68 -3 112 -50q45 -48 56 -134q3 -9 2 -15h41l-20 272h-207h-377h-276v-40q32 0 36 -1q48 -6 69 -24 t24 -58v-842q-3 -39 -24 -58q-21 -18 -69 -24q-4 -1 -36 -1v-40zM293 1237q166 260 211 342q24 44 64 47q40 6 67 -20q29 -27 31 -66q4 -40 -32 -74q-30 -24 -103 -97q-69 -67 -127 -124l-57 -55z" />
<glyph unicode="&#xca;" horiz-adv-x="982" d="M20 0h276h419h227v272h-41q1 -8 -2 -26q-21 -168 -148 -174h-36h-419v485h296q90 -7 100 -93q2 -4 1 -36h40v330h-40q1 -32 -1 -37q-10 -83 -100 -92h-296v386h357h36q68 -3 112 -50q45 -48 56 -134q3 -9 2 -15h41l-20 272h-207h-377h-276v-40q32 0 36 -1q48 -6 69 -24 t24 -58v-842q-3 -39 -24 -58q-21 -18 -69 -24q-4 -1 -36 -1v-40zM188 1241l220 283h144l222 -283l-69 -51l-225 231l-236 -231z" />
<glyph unicode="&#xcb;" horiz-adv-x="982" d="M20 0h276h419h227v272h-41q1 -8 -2 -26q-21 -168 -148 -174h-36h-419v485h296q90 -7 100 -93q2 -4 1 -36h40v330h-40q1 -32 -1 -37q-10 -83 -100 -92h-296v386h357h36q68 -3 112 -50q45 -48 56 -134q3 -9 2 -15h41l-20 272h-207h-377h-276v-40q32 0 36 -1q48 -6 69 -24 t24 -58v-842q-3 -39 -24 -58q-21 -18 -69 -24q-4 -1 -36 -1v-40zM146 1350q0 -40 29 -70q31 -30 71 -30q41 0 70 29q30 31 30 71q0 42 -29 70q-29 30 -71 30q-40 0 -70 -29t-30 -71zM616 1350q0 -40 29 -70q31 -30 71 -30q41 0 70 29q30 31 30 71q0 42 -29 70q-29 30 -71 30 q-40 0 -70 -29t-30 -71z" />
<glyph unicode="&#xcc;" horiz-adv-x="464" d="M30 0h404v41q-30 1 -36 1q-48 6 -68 22t-24 57v845q4 42 24 57q20 17 68 23q6 2 36 1v41h-404v-41q32 1 36 -1q48 -5 68 -22q21 -16 24 -58v-845q-2 -41 -23 -57q-19 -16 -69 -22q-4 0 -36 -1v-41zM48 1540q-4 -40 32 -74q30 -24 103 -97q70 -67 127 -124l56 -55l54 47 q-165 260 -210 342q-24 44 -64 47q-40 6 -67 -20q-28 -27 -31 -66z" />
<glyph unicode="&#xcd;" horiz-adv-x="464" d="M30 0h404v41q-30 1 -36 1q-48 6 -68 22t-24 57v845q4 42 24 57q20 17 68 23q6 2 36 1v41h-404v-41q32 1 36 -1q48 -5 68 -22q21 -16 24 -58v-845q-2 -41 -23 -57q-19 -16 -69 -22q-4 0 -36 -1v-41zM44 1237q166 260 211 342q24 44 64 47q40 6 67 -20q30 -27 31 -66 q4 -40 -32 -74q-29 -24 -103 -97q-70 -67 -127 -124l-57 -55z" />
<glyph unicode="&#xce;" horiz-adv-x="464" d="M-61 1241l220 283h144l222 -283l-69 -51l-225 231l-236 -231zM30 0h404v41q-30 1 -36 1q-48 6 -68 22t-24 57v845q4 42 24 57q20 17 68 23q6 2 36 1v41h-404v-41q32 1 36 -1q48 -5 68 -22q21 -16 24 -58v-845q-2 -41 -23 -57q-19 -16 -69 -22q-4 0 -36 -1v-41z" />
<glyph unicode="&#xcf;" horiz-adv-x="464" d="M-103 1350q-1 -40 29 -70t71 -30t70 29q30 31 30 71q1 42 -29 70q-30 30 -71 30q-40 0 -70 -29t-30 -71zM30 0h404v41q-30 1 -36 1q-48 6 -68 22t-24 57v845q4 42 24 57q20 17 68 23q6 2 36 1v41h-404v-41q32 1 36 -1q48 -5 68 -22q21 -16 24 -58v-845q-2 -41 -23 -57 q-19 -16 -69 -22q-4 0 -36 -1v-41zM367 1350q-1 -40 29 -70t71 -30t70 29q30 31 30 71q1 42 -29 70q-30 30 -71 30q-40 0 -70 -29t-30 -71z" />
<glyph unicode="&#xd1;" horiz-adv-x="1144" d="M20 0h330v41q-30 1 -36 1q-84 12 -93 99v801v2q135 -183 371 -499q237 -315 331 -445h72v135v807q9 90 93 100q6 2 36 1v45h-330v-45q32 1 36 -1q86 -10 93 -100v-710l-633 856h-270v-45q32 1 36 -1q86 -10 93 -100v-801q-7 -87 -93 -99q-4 0 -36 -1v-41zM241 1226 l29 -15q12 28 23 49q13 22 24 37t26 22q15 9 26 12q12 6 28 3q17 -2 27 -5q11 -3 30 -11q21 -9 30 -15q10 -5 32 -18t33 -19q12 -6 34 -19q23 -13 35 -19q68 -38 140 -11t105 102l40 90l-29 15q-10 -27 -23 -49q-12 -21 -24 -37q-11 -14 -26 -22q-15 -7 -26 -12 q-10 -5 -28 -3q-15 3 -27 5q-10 2 -30 11l-30 15q-10 8 -32 19q-21 13 -33 19q-10 6 -34 18q-23 14 -35 20q-68 38 -140 11t-105 -103z" />
<glyph unicode="&#xd2;" horiz-adv-x="1236" d="M30 544q0 -116 46 -223q48 -106 125 -184q80 -76 188 -122q109 -45 229 -46q120 0 229 45q109 46 187 123q80 77 125 183q47 108 47 224q1 117 -46 223q-46 108 -125 184q-78 77 -188 122q-109 46 -229 46q-120 1 -229 -45q-107 -45 -187 -123q-78 -75 -125 -183 q-47 -106 -47 -224zM211 495q-37 207 59 368q96 162 262 182q14 3 41 2q101 0 197 -60q96 -58 164 -163q70 -104 91 -232q25 -135 -11 -258q-35 -122 -118 -200q-82 -78 -192 -91q-108 -13 -214 42q-105 57 -180 165q-75 110 -99 245zM434 1571q-4 -39 32 -74 q30 -23 103 -97q70 -66 127 -124l56 -55l54 47q-165 260 -210 342q-24 44 -64 47q-40 6 -67 -20q-28 -27 -31 -66z" />
<glyph unicode="&#xd3;" horiz-adv-x="1236" d="M30 544q0 -116 46 -223q48 -106 125 -184q80 -76 188 -122q109 -45 229 -46q120 0 229 45q109 46 187 123q80 77 125 183q47 108 47 224q1 117 -46 223q-46 108 -125 184q-78 77 -188 122q-109 46 -229 46q-120 1 -229 -45q-107 -45 -187 -123q-78 -75 -125 -183 q-47 -106 -47 -224zM211 495q-37 207 59 368q96 162 262 182q14 3 41 2q101 0 197 -60q96 -58 164 -163q70 -104 91 -232q25 -135 -11 -258q-35 -122 -118 -200q-82 -78 -192 -91q-108 -13 -214 42q-105 57 -180 165q-75 110 -99 245zM430 1268q166 260 211 342q24 44 64 47 q40 6 67 -20q30 -27 31 -66q4 -39 -32 -74q-29 -23 -103 -97q-70 -66 -127 -124l-57 -55z" />
<glyph unicode="&#xd4;" horiz-adv-x="1236" d="M30 544q0 -116 46 -223q48 -106 125 -184q80 -76 188 -122q109 -45 229 -46q120 0 229 45q109 46 187 123q80 77 125 183q47 108 47 224q1 117 -46 223q-46 108 -125 184q-78 77 -188 122q-109 46 -229 46q-120 1 -229 -45q-107 -45 -187 -123q-78 -75 -125 -183 q-47 -106 -47 -224zM211 495q-37 207 59 368q96 162 262 182q14 3 41 2q101 0 197 -60q96 -58 164 -163q70 -104 91 -232q25 -135 -11 -258q-35 -122 -118 -200q-82 -78 -192 -91q-108 -13 -214 42q-105 57 -180 165q-75 110 -99 245zM325 1272l220 283h144l222 -283 l-69 -51l-225 231l-236 -231z" />
<glyph unicode="&#xd5;" horiz-adv-x="1236" d="M30 544q0 -116 46 -223q48 -106 125 -184q80 -76 188 -122q109 -45 229 -46q120 0 229 45q109 46 187 123q80 77 125 183q47 108 47 224q1 117 -46 223q-46 108 -125 184q-78 77 -188 122q-109 46 -229 46q-120 1 -229 -45q-107 -45 -187 -123q-78 -75 -125 -183 q-47 -106 -47 -224zM211 495q-37 207 59 368q96 162 262 182q14 3 41 2q101 0 197 -60q96 -58 164 -163q70 -104 91 -232q25 -135 -11 -258q-35 -122 -118 -200q-82 -78 -192 -91q-108 -13 -214 42q-105 57 -180 165q-75 110 -99 245zM287 1257l29 -15q12 28 23 49 q13 22 24 37q11 14 26 22t26 12q12 6 28 3q17 -2 27 -5q11 -2 30 -11q21 -9 30 -15q10 -5 32 -18q22 -12 33 -19q12 -5 34 -19q23 -12 35 -19q68 -38 140 -11t105 102l40 90l-29 15q-10 -27 -23 -49q-12 -22 -24 -37q-11 -14 -26 -22q-15 -7 -26 -12q-10 -5 -28 -3 q-15 2 -27 5q-10 3 -30 11l-30 15q-10 7 -32 19q-21 14 -33 19q-10 6 -34 18q-23 14 -35 20q-68 38 -140 11t-105 -103z" />
<glyph unicode="&#xd6;" horiz-adv-x="1236" d="M30 544q0 -116 46 -223q48 -106 125 -184q80 -76 188 -122q109 -45 229 -46q120 0 229 45q109 46 187 123q80 77 125 183q47 108 47 224q1 117 -46 223q-46 108 -125 184q-78 77 -188 122q-109 46 -229 46q-120 1 -229 -45q-107 -45 -187 -123q-78 -75 -125 -183 q-47 -106 -47 -224zM211 495q-37 207 59 368q96 162 262 182q14 3 41 2q101 0 197 -60q96 -58 164 -163q70 -104 91 -232q25 -135 -11 -258q-35 -122 -118 -200q-82 -78 -192 -91q-108 -13 -214 42q-105 57 -180 165q-75 110 -99 245zM283 1371q-1 -40 29 -70t71 -30 q41 -1 70 29q30 30 30 71q1 42 -29 70q-30 30 -71 30q-40 1 -70 -29t-30 -71zM753 1371q-1 -40 29 -70t71 -30q41 -1 70 29q30 30 30 71q1 42 -29 70q-30 30 -71 30q-40 1 -70 -29t-30 -71z" />
<glyph unicode="&#xd9;" horiz-adv-x="1168" d="M20 1047q33 1 37 -1q51 -5 71 -22q21 -16 21 -58v-563q0 -205 123 -322q117 -111 312 -112q194 1 311 112q124 117 124 319v546q9 90 92 100q5 2 37 1v41h-330v-41q32 1 36 -1q86 -10 93 -100v-107v-443q1 -170 -92 -256q-89 -82 -233 -83q-147 1 -233 83q-91 90 -91 240 q1 104 0 305q0 204 -1 285q0 38 21 53q22 17 71 23q6 2 36 1v41h-405v-41zM400 1540q-4 -40 32 -74q30 -24 103 -97q70 -67 127 -124l56 -55l54 47q-165 260 -210 342q-24 44 -64 47q-40 6 -67 -20q-28 -27 -31 -66z" />
<glyph unicode="&#xda;" horiz-adv-x="1168" d="M20 1047q33 1 37 -1q51 -5 71 -22q21 -16 21 -58v-563q0 -205 123 -322q117 -111 312 -112q194 1 311 112q124 117 124 319v546q9 90 92 100q5 2 37 1v41h-330v-41q32 1 36 -1q86 -10 93 -100v-107v-443q1 -170 -92 -256q-89 -82 -233 -83q-147 1 -233 83q-91 90 -91 240 q1 104 0 305q0 204 -1 285q0 38 21 53q22 17 71 23q6 2 36 1v41h-405v-41zM396 1237q166 260 211 342q24 44 64 47q40 6 67 -20q30 -27 31 -66q4 -40 -32 -74q-29 -24 -103 -97q-70 -67 -127 -124l-57 -55z" />
<glyph unicode="&#xdb;" horiz-adv-x="1168" d="M20 1047q33 1 37 -1q51 -5 71 -22q21 -16 21 -58v-563q0 -205 123 -322q117 -111 312 -112q194 1 311 112q124 117 124 319v546q9 90 92 100q5 2 37 1v41h-330v-41q32 1 36 -1q86 -10 93 -100v-107v-443q1 -170 -92 -256q-89 -82 -233 -83q-147 1 -233 83q-91 90 -91 240 q1 104 0 305q0 204 -1 285q0 38 21 53q22 17 71 23q6 2 36 1v41h-405v-41zM291 1241l220 283h144l222 -283l-69 -51l-225 231l-236 -231z" />
<glyph unicode="&#xdc;" horiz-adv-x="1168" d="M20 1047q33 1 37 -1q51 -5 71 -22q21 -16 21 -58v-563q0 -205 123 -322q117 -111 312 -112q194 1 311 112q124 117 124 319v546q9 90 92 100q5 2 37 1v41h-330v-41q32 1 36 -1q86 -10 93 -100v-107v-443q1 -170 -92 -256q-89 -82 -233 -83q-147 1 -233 83q-91 90 -91 240 q1 104 0 305q0 204 -1 285q0 38 21 53q22 17 71 23q6 2 36 1v41h-405v-41zM249 1350q-1 -40 29 -70t71 -30t70 29q30 31 30 71q1 42 -29 70q-30 30 -71 30q-40 0 -70 -29t-30 -71zM719 1350q-1 -40 29 -70t71 -30t70 29q30 31 30 71q1 42 -29 70q-30 30 -71 30 q-40 0 -70 -29t-30 -71z" />
<glyph unicode="&#xdd;" horiz-adv-x="1078" d="M20 1047q35 -3 61 -15q27 -12 51 -40q24 -27 35 -45q12 -18 36 -63q5 -8 8 -14l231 -419v-330q0 -39 -22 -56q-22 -15 -73 -23q-4 0 -37 -1v-41h405v41q-30 1 -36 1q-50 6 -72 22q-21 18 -23 57q0 33 -1 227q0 98 44 164l58 90q29 46 44 68q15 24 23 35q86 132 127 196 q87 132 179 146v41h-282v-41q32 0 50 -12q20 -12 18 -33q0 -21 -22 -53q-6 -8 -12 -19l-254 -392q-144 262 -217 392q-1 4 -5 11q-4 9 -8 15q-18 34 -18 44q0 20 20 33q21 15 51 14v41h-359v-41zM351 1237q166 260 211 342q24 44 64 47q40 6 67 -20q29 -27 31 -66 q4 -40 -32 -74q-30 -24 -103 -97q-69 -67 -127 -124l-57 -55z" />
<glyph unicode="&#xde;" horiz-adv-x="1034" d="M30 816h41v8q2 4 2 9q1 6 1 9q22 168 147 173h35h187v-894q-3 -41 -23 -57t-69 -22q-4 0 -36 -1v-41h405v41q-32 1 -37 1q-47 6 -68 22q-20 16 -24 57v894h167h35q68 -3 112 -50q45 -48 56 -134q3 -9 2 -15h41l-20 272h-934zM426 1492q-9 -48 19 -83q29 -35 79 -38 q-16 -57 -74 -181h80q30 48 78 158q26 57 36 96q9 44 -12 82t-63 50q-19 6 -35 6q-38 1 -69 -24q-30 -24 -39 -66z" />
<glyph unicode="&#xe0;" horiz-adv-x="782" d="M44 130q13 -78 74 -116q62 -36 154 -35q135 3 255 84q22 -53 97 -71t138 8v40q-14 -2 -20 -2q-46 -2 -70 23t-24 69v205v136q0 72 -10 118q-8 48 -38 78q-76 84 -219 84q-95 0 -167 -34q-64 -32 -95 -83t-17 -102q2 0 1 -1v-1q8 -30 34 -47q27 -16 59 -13q35 6 55 32 q21 27 16 60q-2 12 -12 34q-9 23 -14 37q-3 15 8 31q13 16 47 24q90 22 152 -8q26 -12 40 -31q15 -17 21 -48q7 -30 7 -51q2 -21 1 -66v-26q-229 -80 -299 -106q-94 -36 -133 -78q-55 -60 -41 -144zM198 211q20 69 194 136q22 9 100 40l25 10v-278q-26 -15 -75 -31 q-48 -16 -82 -19q-68 -6 -109 15q-41 22 -52 55q-10 34 -1 72zM212 1203q-4 -39 32 -74q30 -23 103 -97q70 -66 127 -124l56 -55l54 47q-165 260 -210 342q-24 44 -64 47q-40 6 -67 -20q-28 -27 -31 -66z" />
<glyph unicode="&#xe1;" horiz-adv-x="782" d="M44 130q13 -78 74 -116q62 -36 154 -35q135 3 255 84q22 -53 97 -71t138 8v40q-14 -2 -20 -2q-46 -2 -70 23t-24 69v205v136q0 72 -10 118q-8 48 -38 78q-76 84 -219 84q-95 0 -167 -34q-64 -32 -95 -83t-17 -102q2 0 1 -1v-1q8 -30 34 -47q27 -16 59 -13q35 6 55 32 q21 27 16 60q-2 12 -12 34q-9 23 -14 37q-3 15 8 31q13 16 47 24q90 22 152 -8q26 -12 40 -31q15 -17 21 -48q7 -30 7 -51q2 -21 1 -66v-26q-229 -80 -299 -106q-94 -36 -133 -78q-55 -60 -41 -144zM198 211q20 69 194 136q22 9 100 40l25 10v-278q-26 -15 -75 -31 q-48 -16 -82 -19q-68 -6 -109 15q-41 22 -52 55q-10 34 -1 72zM208 900q166 260 211 342q24 44 64 47q40 6 67 -20q30 -27 31 -66q4 -39 -32 -74q-29 -23 -103 -97q-70 -66 -127 -124l-57 -55z" />
<glyph unicode="&#xe2;" horiz-adv-x="782" d="M44 130q13 -78 74 -116q62 -36 154 -35q135 3 255 84q22 -53 97 -71t138 8v40q-14 -2 -20 -2q-46 -2 -70 23t-24 69v205v136q0 72 -10 118q-8 48 -38 78q-76 84 -219 84q-95 0 -167 -34q-64 -32 -95 -83t-17 -102q2 0 1 -1v-1q8 -30 34 -47q27 -16 59 -13q35 6 55 32 q21 27 16 60q-2 12 -12 34q-9 23 -14 37q-3 15 8 31q13 16 47 24q90 22 152 -8q26 -12 40 -31q15 -17 21 -48q7 -30 7 -51q2 -21 1 -66v-26q-229 -80 -299 -106q-94 -36 -133 -78q-55 -60 -41 -144zM103 904l220 283h144l222 -283l-69 -51l-225 231l-236 -231zM198 211 q20 69 194 136q22 9 100 40l25 10v-278q-26 -15 -75 -31q-48 -16 -82 -19q-68 -6 -109 15q-41 22 -52 55q-10 34 -1 72z" />
<glyph unicode="&#xe3;" horiz-adv-x="782" d="M44 130q13 -78 74 -116q62 -36 154 -35q135 3 255 84q22 -53 97 -71t138 8v40q-14 -2 -20 -2q-46 -2 -70 23t-24 69v205v136q0 72 -10 118q-8 48 -38 78q-76 84 -219 84q-95 0 -167 -34q-64 -32 -95 -83t-17 -102q2 0 1 -1v-1q8 -30 34 -47q27 -16 59 -13q35 6 55 32 q21 27 16 60q-2 12 -12 34q-9 23 -14 37q-3 15 8 31q13 16 47 24q90 22 152 -8q26 -12 40 -31q15 -17 21 -48q7 -30 7 -51q2 -21 1 -66v-26q-229 -80 -299 -106q-94 -36 -133 -78q-55 -60 -41 -144zM65 889l29 -15q12 28 23 49q13 22 24 37q11 14 26 22t26 12q12 6 28 3 q17 -2 27 -5q11 -2 30 -11q21 -9 30 -15q10 -5 32 -18q22 -12 33 -19q12 -5 34 -19q23 -12 35 -19q68 -38 140 -11t105 102l40 90l-29 15q-10 -27 -23 -49q-12 -22 -24 -37q-11 -14 -26 -22q-15 -7 -26 -12q-10 -5 -28 -3q-15 2 -27 5q-10 3 -30 11l-30 15q-10 7 -32 19 q-21 14 -33 19q-10 6 -34 18q-23 14 -35 20q-68 38 -140 11t-105 -103zM198 211q20 69 194 136q22 9 100 40l25 10v-278q-26 -15 -75 -31q-48 -16 -82 -19q-68 -6 -109 15q-41 22 -52 55q-10 34 -1 72z" />
<glyph unicode="&#xe4;" horiz-adv-x="782" d="M44 130q13 -78 74 -116q62 -36 154 -35q135 3 255 84q22 -53 97 -71t138 8v40q-14 -2 -20 -2q-46 -2 -70 23t-24 69v205v136q0 72 -10 118q-8 48 -38 78q-76 84 -219 84q-95 0 -167 -34q-64 -32 -95 -83t-17 -102q2 0 1 -1v-1q8 -30 34 -47q27 -16 59 -13q35 6 55 32 q21 27 16 60q-2 12 -12 34q-9 23 -14 37q-3 15 8 31q13 16 47 24q90 22 152 -8q26 -12 40 -31q15 -17 21 -48q7 -30 7 -51q2 -21 1 -66v-26q-229 -80 -299 -106q-94 -36 -133 -78q-55 -60 -41 -144zM61 953q-1 -40 29 -70t71 -30q41 -1 70 29q30 30 30 71q1 42 -29 70 q-30 30 -71 30q-40 1 -70 -29t-30 -71zM198 211q20 69 194 136q22 9 100 40l25 10v-278q-26 -15 -75 -31q-48 -16 -82 -19q-68 -6 -109 15q-41 22 -52 55q-10 34 -1 72zM531 953q-1 -40 29 -70t71 -30q41 -1 70 29q30 30 30 71q1 42 -29 70q-30 30 -71 30q-40 1 -70 -29 t-30 -71z" />
<glyph unicode="&#xe5;" horiz-adv-x="782" d="M44 130q13 -78 74 -116q62 -36 154 -35q135 3 255 84q22 -53 97 -71t138 8v40q-14 -2 -20 -2q-46 -2 -70 23t-24 69v205v136q0 72 -10 118q-8 48 -38 78q-76 84 -219 84q-95 0 -167 -34q-64 -32 -95 -83t-17 -102q2 0 1 -1v-1q8 -30 34 -47q27 -16 59 -13q35 6 55 32 q21 27 16 60q-2 12 -12 34q-9 23 -14 37q-3 15 8 31q13 16 47 24q90 22 152 -8q26 -12 40 -31q15 -17 21 -48q7 -30 7 -51q2 -21 1 -66v-26q-229 -80 -299 -106q-94 -36 -133 -78q-55 -60 -41 -144zM184 1066q0 43 18 81q18 39 48 68q30 30 68 46q39 17 78 17q38 0 77 -17 q39 -16 69 -46q30 -28 48 -67q20 -38 19 -82q1 -44 -18 -83t-49 -68q-30 -27 -68 -45q-39 -16 -78 -17q-39 0 -78 16q-38 18 -68 46q-30 29 -48 67q-18 39 -18 84zM198 211q20 69 194 136q22 9 100 40l25 10v-278q-26 -15 -75 -31q-48 -16 -82 -19q-68 -6 -109 15 q-41 22 -52 55q-10 34 -1 72zM276 1066q0 -50 38 -87q39 -37 85 -37t85 36q39 38 39 88q0 51 -39 87t-85 36t-85 -36q-38 -36 -38 -87z" />
<glyph unicode="&#xe7;" horiz-adv-x="776" d="M30 366q0 -158 110 -264q111 -106 285 -121q178 -15 331 69l-41 53q-45 -28 -115 -46q-69 -17 -125 -15q-108 6 -194 83q-84 79 -105 208q-21 135 37 238q60 105 162 119q135 20 183 -41q12 -9 5 -23q-5 -12 -17 -21q-12 -7 -24 -25t-13 -39q-1 -40 35 -67q2 0 4 -2l6 -3 q16 -9 37 -9q12 0 16 1q21 3 34 13q51 34 46 97q-4 65 -60 111q-79 69 -202 69q-169 3 -282 -110t-113 -275zM299 -361q-2 31 24 47q8 4 17 7q8 1 9 1q9 0 17 -5q0 1 1 -1q3 0 2 -2q19 -12 16 -32q1 -10 -7 -19q-6 -9 -14 -14q-6 -4 -9 -10q-3 -4 5 -10q26 -29 71 -26 q33 1 53 15q22 15 32 36q12 21 16 41q6 21 6 42q4 27 -4 53q-6 27 -30 49q-22 24 -55 34q-14 3 -48 2v17q1 12 2 42q3 30 4 59h35l-5 -86q40 1 73 -13q32 -12 52 -30q20 -16 32 -40q14 -24 18 -45q6 -21 5 -39q-1 -28 -14 -59q-12 -30 -36 -54q-23 -23 -59 -38t-79 -15 q-66 0 -104 40q-23 24 -26 53z" />
<glyph unicode="&#xe8;" horiz-adv-x="848" d="M30 366q0 -157 111 -264q111 -106 284 -121q189 -14 329 70l-39 51q-98 -64 -240 -60q-108 4 -194 82q-84 78 -105 208q-4 36 -5 60h503h144q-11 152 -121 255q-110 105 -272 104q-171 1 -283 -111t-112 -274zM176 464q14 92 67 154q55 63 131 72q18 2 26 2q84 0 156 -63 t103 -165h-483zM240 1203q-4 -39 32 -74q30 -23 103 -97q70 -66 127 -124l56 -55l54 47q-165 260 -210 342q-24 44 -64 47q-40 6 -67 -20q-28 -27 -31 -66z" />
<glyph unicode="&#xe9;" horiz-adv-x="848" d="M30 366q0 -157 111 -264q111 -106 284 -121q189 -14 329 70l-39 51q-98 -64 -240 -60q-108 4 -194 82q-84 78 -105 208q-4 36 -5 60h503h144q-11 152 -121 255q-110 105 -272 104q-171 1 -283 -111t-112 -274zM176 464q14 92 67 154q55 63 131 72q18 2 26 2q84 0 156 -63 t103 -165h-483zM236 900q166 260 211 342q24 44 64 47q40 6 67 -20q30 -27 31 -66q4 -39 -32 -74q-29 -23 -103 -97q-70 -66 -127 -124l-57 -55z" />
<glyph unicode="&#xea;" horiz-adv-x="848" d="M30 366q0 -157 111 -264q111 -106 284 -121q189 -14 329 70l-39 51q-98 -64 -240 -60q-108 4 -194 82q-84 78 -105 208q-4 36 -5 60h503h144q-11 152 -121 255q-110 105 -272 104q-171 1 -283 -111t-112 -274zM131 904l220 283h144l222 -283l-69 -51l-225 231l-236 -231z M176 464q14 92 67 154q55 63 131 72q18 2 26 2q84 0 156 -63t103 -165h-483z" />
<glyph unicode="&#xeb;" horiz-adv-x="848" d="M30 366q0 -157 111 -264q111 -106 284 -121q189 -14 329 70l-39 51q-98 -64 -240 -60q-108 4 -194 82q-84 78 -105 208q-4 36 -5 60h503h144q-11 152 -121 255q-110 105 -272 104q-171 1 -283 -111t-112 -274zM89 953q-1 -40 29 -70t71 -30q41 -1 70 29q30 30 30 71 q1 42 -29 70q-30 30 -71 30q-40 1 -70 -29t-30 -71zM176 464q14 92 67 154q55 63 131 72q18 2 26 2q84 0 156 -63t103 -165h-483zM559 953q-1 -40 29 -70t71 -30q41 -1 70 29q30 30 30 71q1 42 -29 70q-30 30 -71 30q-40 1 -70 -29t-30 -71z" />
<glyph unicode="&#xec;" horiz-adv-x="392" d="M11 1204q-3 -40 32 -74q31 -24 103 -97q70 -67 127 -124l57 -55l54 47q-166 260 -211 342q-22 44 -64 47q-39 6 -67 -20q-28 -27 -31 -66zM20 2h352v41q-12 1 -17 1q-47 6 -68 22q-20 16 -24 57v631l-243 -20v-40q12 0 16 -1q48 -6 69 -24t24 -58v-488q-3 -41 -23 -57 t-69 -22q-5 0 -17 -1v-41z" />
<glyph unicode="&#xed;" horiz-adv-x="392" d="M8 903q166 260 211 342q24 44 64 47q40 6 67 -20q30 -27 31 -66q4 -40 -32 -74q-29 -24 -103 -97q-70 -67 -127 -124l-57 -55zM20 2h352v41q-12 1 -17 1q-47 6 -68 22q-20 16 -24 57v631l-243 -20v-40q12 0 16 -1q48 -6 69 -24t24 -58v-488q-3 -41 -23 -57t-69 -22 q-5 0 -17 -1v-41z" />
<glyph unicode="&#xee;" horiz-adv-x="392" d="M-97 907l220 283h144l222 -283l-69 -51l-225 231l-236 -231zM20 2h352v41q-12 1 -17 1q-47 6 -68 22q-20 16 -24 57v631l-243 -20v-40q12 0 16 -1q48 -6 69 -24t24 -58v-488q-3 -41 -23 -57t-69 -22q-5 0 -17 -1v-41z" />
<glyph unicode="&#xef;" horiz-adv-x="392" d="M-139 956q-1 -40 29 -70t71 -30t70 29q30 31 30 71q1 42 -29 70q-30 30 -71 30q-40 0 -70 -29t-30 -71zM20 2h352v41q-12 1 -17 1q-47 6 -68 22q-20 16 -24 57v631l-243 -20v-40q12 0 16 -1q48 -6 69 -24t24 -58v-488q-3 -41 -23 -57t-69 -22q-5 0 -17 -1v-41zM331 956 q-1 -40 29 -70t71 -30t70 29q30 31 30 71q1 42 -29 70q-30 30 -71 30q-40 0 -70 -29t-30 -71z" />
<glyph unicode="&#xf1;" d="M20 0h351v41q-11 1 -17 1q-48 6 -68 22t-24 57v303q2 72 52 139q52 69 105 91q60 26 126 8q67 -16 100 -61q39 -53 39 -140v-342q-3 -39 -24 -55q-20 -16 -68 -22q-4 0 -17 -1v-41h351v41q-9 1 -15 1q-46 6 -67 21t-25 53v359q0 93 -27 145q-32 62 -83 94q-60 38 -120 41 q-73 7 -148 -17q-45 -14 -98 -51q-53 -36 -81 -84v147l-242 -20v-39q6 1 15 -2q48 -6 69 -24t24 -58v-486q-2 -41 -23 -57q-19 -16 -69 -22q-4 0 -16 -1v-41zM142 899l29 -15q11 28 23 49q13 22 24 37q12 14 26 22q16 8 26 12q12 6 28 3q18 -2 27 -5q11 -2 30 -11 q21 -9 30 -15q11 -5 32 -18q23 -12 33 -19q12 -5 34 -19q24 -12 35 -19q69 -38 140 -11q72 27 105 102l40 90l-29 15q-9 -27 -23 -49q-12 -22 -24 -37q-12 -14 -26 -22q-14 -7 -26 -12q-10 -5 -28 -3q-16 2 -27 5q-10 3 -30 11l-30 15q-10 7 -32 19q-21 14 -33 19 q-10 6 -34 18q-22 14 -35 20q-68 38 -140 11t-105 -103z" />
<glyph unicode="&#xf2;" horiz-adv-x="850" d="M30 365q0 -159 116 -273q117 -112 279 -113q163 1 279 113q116 114 116 273q0 161 -116 273q-116 114 -279 113q-162 1 -279 -113q-116 -112 -116 -273zM184 335q-22 135 33 238q57 105 156 117q9 2 25 1q92 1 170 -85q78 -84 98 -211q23 -133 -33 -238 q-56 -103 -156 -117q-99 -12 -185 74q-86 87 -108 221zM241 1203q-3 -39 32 -74q31 -23 103 -97q70 -66 127 -124l56 -55l54 47q-165 260 -210 342q-24 44 -64 47q-40 6 -67 -20q-28 -27 -31 -66z" />
<glyph unicode="&#xf3;" horiz-adv-x="850" d="M30 365q0 -159 116 -273q117 -112 279 -113q163 1 279 113q116 114 116 273q0 161 -116 273q-116 114 -279 113q-162 1 -279 -113q-116 -112 -116 -273zM184 335q-22 135 33 238q57 105 156 117q9 2 25 1q92 1 170 -85q78 -84 98 -211q23 -133 -33 -238 q-56 -103 -156 -117q-99 -12 -185 74q-86 87 -108 221zM237 900q166 260 211 342q24 44 64 47q40 6 67 -20q29 -27 31 -66q4 -39 -32 -74q-30 -23 -103 -97q-69 -66 -127 -124l-57 -55z" />
<glyph unicode="&#xf4;" horiz-adv-x="850" d="M30 365q0 -159 116 -273q117 -112 279 -113q163 1 279 113q116 114 116 273q0 161 -116 273q-116 114 -279 113q-162 1 -279 -113q-116 -112 -116 -273zM132 904l220 283h144l222 -283l-69 -51l-225 231l-236 -231zM184 335q-22 135 33 238q57 105 156 117q9 2 25 1 q92 1 170 -85q78 -84 98 -211q23 -133 -33 -238q-56 -103 -156 -117q-99 -12 -185 74q-86 87 -108 221z" />
<glyph unicode="&#xf5;" horiz-adv-x="850" d="M30 365q0 -159 116 -273q117 -112 279 -113q163 1 279 113q116 114 116 273q0 161 -116 273q-116 114 -279 113q-162 1 -279 -113q-116 -112 -116 -273zM94 889l29 -15q11 28 23 49q13 22 24 37q12 14 26 22q16 8 26 12q12 6 28 3q18 -2 27 -5q11 -2 30 -11q21 -9 30 -15 q11 -5 32 -18q23 -12 33 -19q12 -5 34 -19q24 -12 35 -19q69 -38 140 -11q72 27 105 102l40 90l-29 15q-9 -27 -23 -49q-12 -22 -24 -37q-12 -14 -26 -22q-14 -7 -26 -12q-10 -5 -28 -3q-16 2 -27 5q-10 3 -30 11l-30 15q-10 7 -32 19q-21 14 -33 19q-10 6 -34 18 q-22 14 -35 20q-68 38 -140 11t-105 -103zM184 335q-22 135 33 238q57 105 156 117q9 2 25 1q92 1 170 -85q78 -84 98 -211q23 -133 -33 -238q-56 -103 -156 -117q-99 -12 -185 74q-86 87 -108 221z" />
<glyph unicode="&#xf6;" horiz-adv-x="850" d="M30 365q0 -159 116 -273q117 -112 279 -113q163 1 279 113q116 114 116 273q0 161 -116 273q-116 114 -279 113q-162 1 -279 -113q-116 -112 -116 -273zM90 963q0 -40 29 -70q31 -30 71 -30q41 -1 70 29q30 30 30 71q0 42 -29 70q-29 30 -71 30q-40 1 -70 -29t-30 -71z M184 335q-22 135 33 238q57 105 156 117q9 2 25 1q92 1 170 -85q78 -84 98 -211q23 -133 -33 -238q-56 -103 -156 -117q-99 -12 -185 74q-86 87 -108 221zM560 963q0 -40 29 -70q31 -30 71 -30q41 -1 70 29q30 30 30 71q0 42 -29 70q-29 30 -71 30q-40 1 -70 -29t-30 -71z " />
<glyph unicode="&#xf9;" d="M20 691q12 1 16 -1q48 -6 68 -23t23 -59v-344q0 -90 27 -144q32 -62 83 -94q60 -36 120 -41q78 -5 148 16q45 15 98 51q54 38 81 84v-156l242 20v40q-10 0 -16 1q-48 5 -68 23q-21 18 -24 59v483v145l-243 -20v-40q12 1 16 -1q50 -5 71 -24q22 -18 22 -60v-290 q0 -71 -52 -139q-51 -67 -105 -91q-61 -26 -127 -9t-100 61q-38 52 -38 141v472l-242 -20v-40zM289 1203q-3 -39 32 -74q31 -23 103 -97q70 -66 127 -124l56 -55l54 47q-165 260 -210 342q-24 44 -64 47q-40 6 -67 -20q-28 -27 -31 -66z" />
<glyph unicode="&#xfa;" d="M20 691q12 1 16 -1q48 -6 68 -23t23 -59v-344q0 -90 27 -144q32 -62 83 -94q60 -36 120 -41q78 -5 148 16q45 15 98 51q54 38 81 84v-156l242 20v40q-10 0 -16 1q-48 5 -68 23q-21 18 -24 59v483v145l-243 -20v-40q12 1 16 -1q50 -5 71 -24q22 -18 22 -60v-290 q0 -71 -52 -139q-51 -67 -105 -91q-61 -26 -127 -9t-100 61q-38 52 -38 141v472l-242 -20v-40zM285 900q166 260 211 342q24 44 64 47q40 6 67 -20q29 -27 31 -66q4 -39 -32 -74q-30 -23 -103 -97q-69 -66 -127 -124l-57 -55z" />
<glyph unicode="&#xfb;" d="M20 691q12 1 16 -1q48 -6 68 -23t23 -59v-344q0 -90 27 -144q32 -62 83 -94q60 -36 120 -41q78 -5 148 16q45 15 98 51q54 38 81 84v-156l242 20v40q-10 0 -16 1q-48 5 -68 23q-21 18 -24 59v483v145l-243 -20v-40q12 1 16 -1q50 -5 71 -24q22 -18 22 -60v-290 q0 -71 -52 -139q-51 -67 -105 -91q-61 -26 -127 -9t-100 61q-38 52 -38 141v472l-242 -20v-40zM180 904l220 283h144l222 -283l-69 -51l-225 231l-236 -231z" />
<glyph unicode="&#xfc;" d="M20 691q12 1 16 -1q48 -6 68 -23t23 -59v-344q0 -90 27 -144q32 -62 83 -94q60 -36 120 -41q78 -5 148 16q45 15 98 51q54 38 81 84v-156l242 20v40q-10 0 -16 1q-48 5 -68 23q-21 18 -24 59v483v145l-243 -20v-40q12 1 16 -1q50 -5 71 -24q22 -18 22 -60v-290 q0 -71 -52 -139q-51 -67 -105 -91q-61 -26 -127 -9t-100 61q-38 52 -38 141v472l-242 -20v-40zM138 963q0 -40 29 -70q31 -30 71 -30q41 -1 70 29q30 30 30 71q0 42 -29 70q-29 30 -71 30q-40 1 -70 -29t-30 -71zM608 963q0 -40 29 -70q31 -30 71 -30q41 -1 70 29 q30 30 30 71q0 42 -29 70q-29 30 -71 30q-40 1 -70 -29t-30 -71z" />
<glyph unicode="&#xfd;" horiz-adv-x="900" d="M20 690q30 -2 52 -16q23 -12 40 -36q18 -22 29 -42t25 -51l249 -564q-17 -45 -29 -71q-12 -25 -31 -68q-18 -42 -33 -68q-14 -24 -32 -51q-17 -25 -34 -37q-16 -12 -32 -10q-12 3 -18 12q-6 10 -6 21q1 12 2 30q3 20 1 29q-1 34 -25 57q-24 24 -57 24t-58 -24 q-24 -24 -24 -57q1 -10 4 -26q14 -46 65 -80q52 -34 115 -34q85 0 141 90q40 64 139 282q162 364 243 544q16 36 25 54q11 18 27 43q18 25 37 36q21 13 45 13v40h-212v-40q20 0 33 -9q15 -9 14 -23q0 -6 -3 -12q-8 -22 -14 -34l-7 -14q0 -2 -2 -5q0 -3 -6 -14l-5 -11 l-193 -432q-123 286 -186 427q-3 6 -8 18t-8 18q-3 9 -8 20q-4 11 -8 19q-3 9 -4 9q-3 6 -3 10q0 15 14 23q15 10 35 10v40h-289v-40zM262 879q166 260 211 342q24 44 64 47q40 6 67 -20q30 -27 31 -66q4 -40 -32 -74q-29 -24 -103 -97q-70 -67 -127 -124l-57 -55z" />
<glyph unicode="&#xff;" horiz-adv-x="900" d="M20 690q30 -2 52 -16q23 -12 40 -36q18 -22 29 -42t25 -51l249 -564q-17 -45 -29 -71q-12 -25 -31 -68q-18 -42 -33 -68q-14 -24 -32 -51q-17 -25 -34 -37q-16 -12 -32 -10q-12 3 -18 12q-6 10 -6 21q1 12 2 30q3 20 1 29q-1 34 -25 57q-24 24 -57 24t-58 -24 q-24 -24 -24 -57q1 -10 4 -26q14 -46 65 -80q52 -34 115 -34q85 0 141 90q40 64 139 282q162 364 243 544q16 36 25 54q11 18 27 43q18 25 37 36q21 13 45 13v40h-212v-40q20 0 33 -9q15 -9 14 -23q0 -6 -3 -12q-8 -22 -14 -34l-7 -14q0 -2 -2 -5q0 -3 -6 -14l-5 -11 l-193 -432q-123 286 -186 427q-3 6 -8 18t-8 18q-3 9 -8 20q-4 11 -8 19q-3 9 -4 9q-3 6 -3 10q0 15 14 23q15 10 35 10v40h-289v-40zM115 967q-1 -40 29 -70t71 -30q41 -1 70 29q30 30 30 71q1 42 -29 70q-30 30 -71 30q-40 1 -70 -29t-30 -71zM585 967q-1 -40 29 -70 t71 -30q41 -1 70 29q30 30 30 71q1 42 -29 70q-30 30 -71 30q-40 1 -70 -29t-30 -71z" />
<glyph unicode="&#x178;" horiz-adv-x="1078" d="M20 1047q35 -3 61 -15q27 -12 51 -40q24 -27 35 -45q12 -18 36 -63q5 -8 8 -14l231 -419v-330q0 -39 -22 -56q-22 -15 -73 -23q-4 0 -37 -1v-41h405v41q-30 1 -36 1q-50 6 -72 22q-21 18 -23 57q0 33 -1 227q0 98 44 164l58 90q29 46 44 68q15 24 23 35q86 132 127 196 q87 132 179 146v41h-282v-41q32 0 50 -12q20 -12 18 -33q0 -21 -22 -53q-6 -8 -12 -19l-254 -392q-144 262 -217 392q-1 4 -5 11q-4 9 -8 15q-18 34 -18 44q0 20 20 33q21 15 51 14v41h-359v-41zM204 1340q0 -40 29 -70q31 -30 71 -30q41 0 70 29q30 31 30 71q0 42 -29 70 q-29 30 -71 30q-40 0 -70 -29t-30 -71zM674 1340q0 -40 29 -70q31 -30 71 -30q41 0 70 29q30 31 30 71q0 42 -29 70q-29 30 -71 30q-40 0 -70 -29t-30 -71z" />
<glyph unicode="&#x2c6;" horiz-adv-x="646" d="M30 1037l220 283h144l222 -283l-69 -51l-225 231l-236 -231z" />
<glyph unicode="&#x2dc;" horiz-adv-x="722" d="M30 503l29 -15q11 28 23 49q13 22 24 37q12 14 26 22q16 8 26 12q12 6 28 3q18 -2 27 -5q11 -2 30 -11q21 -9 30 -15q11 -5 32 -18q23 -12 33 -19q12 -5 34 -19q24 -12 35 -19q69 -38 140 -11q72 27 105 102l40 90l-29 15q-9 -27 -23 -49q-12 -22 -24 -37 q-12 -14 -26 -22q-14 -7 -26 -12q-10 -5 -28 -3q-16 2 -27 5q-10 3 -30 11l-30 15q-10 7 -32 19q-21 14 -33 19q-10 6 -34 18q-22 14 -35 20q-68 38 -140 11t-105 -103z" />
<glyph unicode="&#x2000;" horiz-adv-x="829" />
<glyph unicode="&#x2001;" horiz-adv-x="1658" />
<glyph unicode="&#x2002;" horiz-adv-x="829" />
<glyph unicode="&#x2003;" horiz-adv-x="1658" />
<glyph unicode="&#x2004;" horiz-adv-x="552" />
<glyph unicode="&#x2005;" horiz-adv-x="414" />
<glyph unicode="&#x2006;" horiz-adv-x="276" />
<glyph unicode="&#x2007;" horiz-adv-x="276" />
<glyph unicode="&#x2008;" horiz-adv-x="207" />
<glyph unicode="&#x2009;" horiz-adv-x="331" />
<glyph unicode="&#x200a;" horiz-adv-x="92" />
<glyph unicode="&#x2010;" horiz-adv-x="668" d="M40 323v84h588v-84h-588z" />
<glyph unicode="&#x2011;" horiz-adv-x="668" d="M40 323v84h588v-84h-588z" />
<glyph unicode="&#x2012;" horiz-adv-x="668" d="M40 323v84h588v-84h-588z" />
<glyph unicode="&#x2013;" horiz-adv-x="1104" d="M40 323v84h1024v-84h-1024z" />
<glyph unicode="&#x2014;" horiz-adv-x="2128" d="M40 323v84h2048v-84h-2048z" />
<glyph unicode="&#x2018;" horiz-adv-x="272" d="M34 1045q-8 40 11 73q18 34 56 45q18 5 33 5q34 0 62 -21q26 -21 34 -59q9 -44 -17 -75q-27 -31 -71 -34q12 -49 68 -163h-72q-26 44 -71 142q-27 57 -33 87z" />
<glyph unicode="&#x2019;" horiz-adv-x="272" d="M36 1088q-9 -44 17 -75q27 -31 71 -34q-12 -49 -68 -163h72q26 44 71 142q27 57 33 87q8 40 -11 73q-18 34 -56 45q-18 5 -33 5q-34 0 -62 -21q-26 -21 -34 -59z" />
<glyph unicode="&#x201a;" horiz-adv-x="274" d="M39 98q-9 -44 17 -75t71 -34q-12 -49 -68 -163h72q27 44 71 142q27 57 33 87q9 40 -11 73q-18 34 -56 45q-18 5 -33 5q-35 0 -62 -21t-34 -59z" />
<glyph unicode="&#x201c;" horiz-adv-x="545" d="M37 999q-7 -39 11 -73q20 -33 56 -45q18 -5 33 -5q35 0 62 21q27 23 34 59q9 45 -17 75q-26 31 -71 34q14 49 68 163h-72q-26 -42 -71 -142q-26 -56 -33 -87zM310 999q-6 -39 11 -73q20 -33 56 -45q18 -5 33 -5q36 0 62 21q28 23 34 59q10 45 -17 75q-26 31 -71 34 q14 49 68 163h-72q-26 -42 -71 -142q-25 -56 -33 -87z" />
<glyph unicode="&#x201d;" horiz-adv-x="545" d="M39 1088q-9 -44 17 -75t71 -34q-12 -49 -68 -163h72q27 44 71 142q27 57 33 87q9 40 -11 73q-18 34 -56 45q-18 5 -33 5q-35 0 -62 -21t-34 -59zM312 1088q-9 -44 17 -75q27 -31 71 -34q-12 -49 -68 -163h72q26 44 71 142q27 57 33 87q8 40 -11 73q-18 34 -56 45 q-18 5 -33 5q-34 0 -62 -21q-26 -21 -34 -59z" />
<glyph unicode="&#x201e;" horiz-adv-x="545" d="M39 98q-9 -44 17 -75t71 -34q-12 -49 -68 -163h72q27 44 71 142q27 57 33 87q9 40 -11 73q-18 34 -56 45q-18 5 -33 5q-35 0 -62 -21t-34 -59zM312 98q-9 -44 17 -75q27 -31 71 -34q-12 -49 -68 -163h72q26 44 71 142q27 57 33 87q8 40 -11 73q-18 34 -56 45q-18 5 -33 5 q-34 0 -62 -21q-26 -21 -34 -59z" />
<glyph unicode="&#x202f;" horiz-adv-x="331" />
<glyph unicode="&#x205f;" horiz-adv-x="414" />
<glyph unicode="&#x25fc;" horiz-adv-x="730" d="M0 0v730h730v-730h-730z" />
</font>
</defs>
</svg>
